/* XPM */
static char *_529483330518[] = {
/* columns rows colors chars-per-pixel */
"72 79 112 2 ",
"   c black",
".  c #110000",
"X  c #111111",
"o  c #222222",
"O  c #332222",
"+  c #333322",
"@  c gray20",
"#  c #443322",
"$  c #553322",
"%  c #443333",
"&  c #553333",
"*  c #444433",
"=  c #554433",
"-  c #664433",
";  c #665533",
":  c #444444",
">  c #554444",
",  c #555544",
"<  c #444455",
"1  c #554455",
"2  c #555555",
"3  c #664444",
"4  c #665544",
"5  c #775544",
"6  c #665555",
"7  c #775555",
"8  c #776644",
"9  c #776655",
"0  c #555566",
"q  c #556666",
"w  c gray40",
"e  c #776666",
"r  c #666677",
"t  c #777777",
"y  c #885500",
"u  c #995500",
"i  c #996600",
"p  c #AA6600",
"a  c #AA7700",
"s  c #BB7700",
"d  c #886654",
"f  c #886655",
"g  c #887755",
"h  c #886666",
"j  c #887765",
"k  c #887766",
"l  c #997766",
"z  c #887777",
"x  c #998800",
"c  c #AA8800",
"v  c #AA9900",
"b  c #BB9900",
"n  c #AAAA00",
"m  c #BBAA00",
"M  c #CC8800",
"N  c #CCAA00",
"B  c #CCBB00",
"V  c #DDBB00",
"C  c #CCCC00",
"Z  c #DDCC00",
"A  c #DDDD00",
"S  c #EECC00",
"D  c #EEDD00",
"F  c #FFDD00",
"G  c #EEEE00",
"H  c #FFEE00",
"J  c yellow",
"K  c #998877",
"L  c #AA8877",
"P  c #777788",
"I  c #778888",
"U  c #77CCEE",
"Y  c #888888",
"T  c #998888",
"R  c #888899",
"E  c #998899",
"W  c #889999",
"Q  c gray60",
"!  c #AA8888",
"~  c #AA9988",
"^  c #BB9988",
"/  c #BB9999",
"(  c #BBAA99",
")  c #9999AA",
"_  c #99AAAA",
"`  c #AAAAAA",
"'  c #AAAABB",
"]  c #AABBBB",
"[  c #BBBBBB",
"{  c #CCAA99",
"}  c #CCAAAA",
"|  c #CCBBAA",
" . c #DDBBAA",
".. c #DDBBBB",
"X. c #DDCCBB",
"o. c #BBBBCC",
"O. c #CCBBCC",
"+. c #BBCCCC",
"@. c gray80",
"#. c #DDCCCC",
"$. c #CCCCDD",
"%. c #CCDDDD",
"&. c #DDDDDD",
"*. c #EECCCC",
"=. c #DDDDEE",
"-. c #DDEEEE",
";. c #CCEEFF",
":. c #EEEEEE",
">. c #EEEEFF",
",. c #EEFFFF",
"<. c white",
"1. c None",
/* pixels */
"1.1.1.1.1.1.1.1.1.1.1.1.1.1.1.1.1.1.1.1.1.1.1.1.1.1.1.1.1.1.1.1.1.1.1.1.1.1.1.1.1.1.1.1.1.1.1.1.1.1.1.1.1.1.1.1.1.1.1.1.1.1.1.1.1.1.1.1.1.1.1.1.",
"1.1.1.1.1.1.1.1.1.1.1.1.1.1.1.1.1.1.1.1.1.1.1.1.1.1.1.1.1.1.1.1.1.1.1.1.1.1.1.1.1.1.1.1.1.1.1.1.1.1.1.1.1.1.1.1.1.1.1.1.1.1.1.1.1.1.1.1.1.1.1.1.",
"1.1.1.1.1.1.1.1.1.1.1.1.1.1.1.1.1.                1.1.1.1.1.1.1.1.1.1.1.1.1.1.1.1.1.1.1.1.1.1.1.1.1.1.1.1.1.1.1.1.1.1.1.1.1.1.1.1.1.1.1.1.1.1.1.",
"1.1.1.1.1.1.1.1.1.1.1.1.1.      J J J J J J J J   1.1.1.1.1.1.1.1.1.1.1.1.1.1.1.1.1.1.1.1.1.1.1.1.1.1.1.1.1.1.1.1.1.1.1.1.1.1.1.1.1.1.1.1.1.1.1.",
"1.1.1.1.1.1.1.1.1.1.1.1.J J J J J J J H H H J J   1.1.1.1.1.1.1.1.1.1.1.1.1.1.1.1.1.1.1.1.1.1.1.1.1.1.1.1.1.1.1.1.1.1.1.1.1.1.1.1.1.1.1.1.1.1.1.",
"1.1.1.1.1.1.1.1.1.1.1.1.H H H H H H H H M H J   1.1.1.1.1.1.1.1.1.1.1.1.1.1.1.1.1.1.1.1.1.1.1.1.1.1.1.1.1.1.1.1.1.1.1.1.1.1.1.1.1.1.1.1.1.1.1.1.",
"1.1.1.1.1.1.1.1.1.1.1.1.H M M H H M H H M H J   1.1.1.1.1.1.1.1.1.1.1.1.1.1.1.1.1.1.1.1.1.1.1.1.1.1.1.1.1.1.1.1.1.1.1.1.1.1.1.1.1.1.1.1.1.1.1.1.",
"1.1.1.1.1.1.1.1.1.1.1.1.H M M H H M M H M F J   1.1.1.1.1.1.1.1.1.1.1.1.1.1.1.1.1.1.1.1.1.1.1.1.1.1.1.1.1.1.1.1.1.1.1.1.1.1.1.1.1.1.1.1.1.1.1.1.",
"1.1.1.1.1.1.1.1.1.1.1.1.H H M H H M H F M F H   1.1.1.1.1.1.1.1.1.1.1.1.1.1.1.1.1.1.1.1.1.1.1.1.1.1.1.1.1.1.1.1.1.1.1.1.1.1.1.1.1.1.1.1.1.1.1.1.",
"1.1.1.1.1.1.1.1.1.1.1.1.J F M F F F D D M D G D 1.1.1.1.1.1.1.1.1.1.1.1.1.1.1.1.1.1.1.1.1.1.1.1.1.1.1.1.1.1.1.1.1.1.1.1.1.1.1.1.1.1.1.1.1.1.1.1.",
"1.1.1.1.1.1.1.1.1.1.1.1.H D M M D S S S s Z A A   1.1.1.1.1.1.1.1.1.1.1.1.1.1.1.1.1.1.1.1.1.1.1.1.1.1.1.1.1.1.1.1.1.1.1.1.1.1.1.1.1.1.1.1.1.1.1.",
"1.1.1.1.1.1.1.1.1.1.1.1.  Z Z s s s s s s Z A A   1.1.1.1.1.1.1.1.1.1.1.1.1.1.1.1.1.1.1.1.1.1.1.1.1.1.1.1.1.1.1.1.1.1.1.1.1.1.1.1.1.1.1.1.1.1.1.",
"1.1.1.1.1.1.1.1.1.1.1.1.  A Z Z s s s Z Z Z Z A   1.1.1.1.1.1.1.1.1.1.1.1.1.1.1.1.1.1.1.1.1.1.1.1.1.1.1.1.1.1.1.1.1.1.1.1.1.1.1.1.1.1.1.1.1.1.1.",
"1.1.1.1.1.1.1.1.1.1.1.1.1.D D S S s s s Z Z A A Z   1.1.1.1.1.1.1.1.1.1.1.1.1.1.1.1.1.1.1.1.1.1.1.1.1.1.1.1.1.1.1.1.1.1.1.1.1.1.1.1.1.1.1.1.1.1.",
"1.1.1.1.1.1.1.1.1.1.1.1.1.  G G S s s s s B B B C   1.1.1.1.1.1.1.1.          1.1.1.1.1.1.1.1.1.1.1.1.1.1.1.1.1.1.1.1.1.1.1.1.1.1.1.1.1.1.1.1.1.",
"1.1.1.1.1.1.1.1.1.1.1.1.1.  D Z Z s p p p p p m B B   <.        X...| } ( ^ ^ ~ ~ L     1.1.1.1.1.1.1.1.1.1.1.1.1.1.1.1.1.1.1.1.1.1.1.1.1.1.1.1.",
"1.1.1.1.1.1.1.1.1.1.1.1.1.1.A V a a p p B p p N C C     *.*.*.#.X. .| ( / ^ ^ ~ ~ ! L K K l   1.1.1.1.1.1.1.1.1.1.1.1.1.1.1.1.1.1.1.1.1.1.1.1.1.",
"1.1.1.1.1.1.1.1.1.1.1.1.1.1.  B p p p p p p p B C B m   *.#.#...| { ( ( ^ ^ ^ ^ ^ ~ L L K l l k   1.1.1.1.1.1.1.1.1.1.1.1.1.1.1.1.1.1.1.1.1.1.1.",
"1.1.1.1.1.1.1.1.1.1.1.1.1.1.1.m m m m m i i i v n n n n   #...| ( ( / ^ ^ ^ ^ ^ ~ ~ ~ ~ L K l k k k 1.1.1.1.1.1.1.1.1.1.1.1.1.1.1.1.1.1.1.1.1.1.",
"1.1.1.1.1.1.1.1.1.1.1.1.1.1.1.  v n n v u u u v x v v v n   | ( ( / ^ ^ ^ ^ ^ ^ ~ 4 5 f l k 4 4 f k f 1.1.1.1.1.1.1.1.1.1.1.1.1.1.1.1.1.1.1.1.1.",
"1.1.1.1.1.1.1.1.1.1.1.1.1.1.1.1.  n n v u u y y x x c v v n   ( / ^ ^ ^ ^ ^ ^ ~ L 9 4 4 4 3 = $ # f g 9 1.1.1.1.1.1.1.1.1.1.1.1.1.1.1.1.1.1.1.1.",
"1.1.1.1.1.1.1.1.1.1.1.1.1.1.1.      m b v v v u u u v v v v n         ^ ^ ^ ^ ^ ~ L 9 4 4 3 = & $ = f f 9 1.1.1.1.1.1.1.1.1.1.1.1.1.1.1.1.1.1.1.",
"1.1.1.1.1.1.1.1.1.1.1.1.1.    #.#.X.    m m b b v v v n n n v v     k K ~ ~ ~ ~ ~ ~ ~ K 4 = = & $ # 9 f 9   1.1.1.1.1.1.1.1.1.1.1.1.1.1.1.1.1.1.",
"1.1.1.1.1.1.1.1.1.1.1.1.   .X. .( / ^ ~                           4 9 k l l l K K K L L K l l - & $ 4 g 9 9   1.1.1.1.1.1.1.1.1.1.1.1.1.1.1.1.1.",
"1.1.1.1.1.1.1.1.1.1.  ( ( ( ( ~ ~ ~ ! K k 5 = = = - = = = = - - - 4 9 f k k k k k k l l l l l k 4 & 7 k 9 9 9   1.1.1.1.1.1.1.1.1.1.1.1.1.1.1.1.",
"1.1.1.1.1.1.1.1.1./ ^ ^ ^ ~ ~ L K K l k 9 - - 4 4 4 - - - ; 4 ; - 4 9 f f f f k k k k k k k k k k k 4 4 f 9 9   1.1.1.1.1.1.1.1.1.1.1.1.1.1.1.1.",
"1.1.1.1.1.1.1.1.^ ^ ^ ~ ! K l k k k f 9 4 4 4 4 4 4 4 4 4 4 4 4 5 9 9 f f f 9 9 9 f g k k k k k k k k 9 f f 9 9   1.1.1.1.1.1.1.1.1.1.1.1.1.1.1.",
"1.1.1.1.1.1.1.^ ^ ~ ~ K l k k k k k 9 5 4 4 4 4 4 4 4 4 5 5 5 4 9 9 f g k k f f f f 9 9 9 9 f g k k k k k g f 9 9   1.1.1.1.1.1.1.1.1.1.1.1.1.1.",
"1.1.1.1.1.1.  ^ ~ L l k g f f f f f 9 9 5 4 5 5 9 9 9 5 5 7 9 7 9 9 9 f 9 9 f f g f g 9 9 5 5 9 9 f k k k k g f f f   1.1.1.1.1.1.1.1.1.1.1.1.1.",
"1.1.1.1.1.1.^ ~ K k f 9 9 f f f f f 9 9 9 9 9 9 9 9 9 6 7 7 9 9 9 9 h f f 9 9 9 f f g g 9 9 5 4 5 8 9 f k k k k g f f     1.1.1.1.1.1.1.1.1.1.1.",
"1.1.1.1.1.  ~ K g 8 8 9 9 f 9 9 f 9 7 4 > = = > * > , 6 6 6 % > 6 e e e e = e h k h h k f 9 9 8 4 4 4 4 9 f k k k g f f f   1.1.1.1.1.1.1.1.1.1.",
"1.1.1.1.1.^ L k 4 4 5 9 9 9 9 = # % % : 6 w e e   % : 2 e e   * % > > e O   e e e e h e e 9 9 9 9 8 4 4 4 4 9 f k k g f f f   1.1.1.1.1.1.1.1.1.",
"1.1.1.1.  ~ l 8 - 4 9 f 9 * o % 6 e 6 @ 6 2 2 2                                   t e   6 e e e 9 9 9 8 4 4 4 4 9 f g g f f f 1.1.1.1.1.1.1.1.1.",
"1.1.1.1.  ~ k 4 = 4 9 = O % 6 t z t 6     O       q R R R Y P Y Y Y P I P Y Y R Y       T T z k e e h 9 9 4 4 = - 4 9 f f f 9 9 1.1.1.1.1.1.1.1.",
"1.1.1.1.  ~ 9 - 4 9 4 X % e % O w w % o     P R R R R Y Y Y Y Y I I I I Y Y I P P P P R     E e > 6 e h f 9 9 - = = 4 5 9 9 9 9 f 1.1.1.1.1.1.1.",
"1.1.1.1.  L 8 = 4 9   o e t t X         P R W W W R R R R R R R R R R R R R R R R Y I P Y R       6 6 6 e e f 7 - = = = 4 9 9 9 9   1.1.1.1.1.1.",
"1.1.1.1.1.K 5 4 4 =   % e z e 1 : o   I R R R R R W R R R R R R R R R R W W Q ) Q R R R R R P r   z z 2 2 e h k 9 4 = = = 4 9 9 9 9 1.1.1.1.1.1.",
"1.1.1.1.1.  9 4 4 #   % t e 6 %     R R R 2 2 2 W Q Q Q Q W Q Q Q W W Q Q Q ) ) ) ) ) Q R R R R W   z 6 : 2 e k k 9 4 = = = 4 9 9 9   1.1.1.1.1.",
"1.1.1.1.1.1.9 5 5 4   X 6 @         R R 2       0 Q Q ) ) ) ) ) ) ) ) ) ) ) ) ) 0 0 0 ) ) Q W R W r   X : O O 9 k f 5 = = = = 4 9 9   1.1.1.1.1.",
"1.1.1.1.1.1.  9 9 9     O e t 6 2 < R 2   <.;.;.  0 ) _ ` ` ' ' ' ' ' _ ) ) ) 0       0 ) ) ) Q Q R R   z z X   k h 9 4 = = = = 5 9   1.1.1.1.1.",
"1.1.1.1.1.1.1.9 9 9 #       w 6   W R 2   ;.;.U   w ' ' ' [ [ o.o.$.$.@.o.[ w   <.;.;.  0 ) ) ) Q Q Y     z e     k 9 8 = = * = 4 9   1.1.1.1.1.",
"1.1.1.1.1.1.1.  f 9 9 >           ) ) ) r       r o.o.  o.O.@.$.$.&.  &.&.&.P   ;.;.U   0 ) ) ) ) Q R       O     9 9 8 4 = = = 4 9   1.1.1.1.1.",
"1.1.1.1.1.1.1.1.  k g 9 9       ) ' ' o.@.t t t @.@.@.  $.$.  &.&.=.  =.=.=.=.Y       0 ) ) ) ) ) ) Q R   z z %   k f 5 = = * = 4 9   1.1.1.1.1.",
"1.1.1.1.1.1.1.1.1.  K k f 9 k   ' o.+.@.$.$.$.$.$.$.$.%.    &.      -.-.=.=.=.=.Y Y Y +.' ) ) ) ) ) W R P   z .   l f 5 = = = = 5 9 1.1.1.1.1.1.",
"1.1.1.1.1.1.1.1.1.1.1.  k k   ' ] $.&.=.=.&.&.=.=.=.=.=.=.-.:.:.:.:.:.:.:.=.=.=.=.=.=.=.$.' _ ) ) ) R R P   *     K f 4 = = = 4 9   1.1.1.1.1.1.",
"1.1.1.1.1.1.1.1.1.1.1.1.    ' ' $.=.-.:.:.:.:.:.:.:.:.:.:.:.>.>.>.>.:.:.:.:.=.=.=.=.=.=.=.$.[ ` ) ) W Y Y P     = k 9 = = = 4 8 9 1.1.1.1.1.1.1.",
"1.1.1.1.1.1.1.1.1.1.1.1.  o.] $.=.-.:.:.>.>.>.>.>.>.>.>.>.>.>.>.>.>.>.>.:.:.:.-.=.=.=.=.=.=.$.o._ ) ) R P P   + 9 9 5 4 = 4 9 9 1.1.1.1.1.1.1.1.",
"1.1.1.1.1.1.1.1.1.1.1.  o.@.&.=.-.:.:.>.,.,.,.,.>.,.,.,.<.,.,.>.>.>.>.>.>.:.:.:.:.-.=.=.-.-.=.$.[ _ Q R R Y P   9 9 8 4 5 9 9 1.1.1.1.1.1.1.1.1.",
"1.1.1.1.1.1.1.1.1.1.  @.$.&.=.:.:.>.>.,.,.,.,.,.,.,.,.<.<.,.,.,.>.>.>.>.>.:.:.:.:.:.:.-.-.-.=.=.$.o.) W R R P P   9 9 9 9   1.1.1.1.1.1.1.1.1.1.",
"1.1.1.1.1.1.1.1.1.1.@.$.&.=.-.:.>.>.,.,.<.<.<.<.<.<.<.<.<.,.,.,.>.>.>.>.>.:.:.:.:.:.:.:.-.-.-.-.=.$.] ) R R Y P   9     1.1.1.1.1.1.1.1.1.1.1.1.",
"1.1.1.1.1.1.1.1.1.  $.$.=.=.:.:.>.>.,.<.<.<.<.<.<.<.<.<.<.<.<.,.,.>.>.>.>.>.:.:.:.:.:.:.:.:.:.-.=.&.@.' Q R R P P   1.1.1.1.1.1.1.1.1.1.1.1.1.1.",
"1.1.1.1.1.1.1.1.1.$.$.&.=.:.:.>.>.,.<.<.<.<.<.<.<.<.<.<.<.<.<.<.,.>.>.>.>.>.:.:.:.:.:.:.:.:.:.:.-.=.$.o._ R R I P   1.1.1.1.1.1.1.1.1.1.1.1.1.1.",
"1.1.1.1.1.1.1.1.  $.&.=.=.:.>.>.>.,.<.<.<.<.<.<.<.<.<.<.<.<.<.<.,.>.>.>.>.>.:.:.:.:.:.:.:.:.:.:.-.-.&.@.' ) R Y P   1.1.1.1.1.1.1.1.1.1.1.1.1.1.",
"1.1.1.1.1.1.1.1.$.$.&.=.:.:.>.>.>.,.<.<.<.<.<.<.<.<.<.<.<.<.<.>.>.>.>.>.>.>.:.:.:.:.:.:.:.:.:.:.:.-.=.$.o.) R R P P 1.1.1.1.1.1.1.1.1.1.1.1.1.1.",
"1.1.1.1.1.1.1.1.$.%.&.=.:.:.>.>.>.>.<.<.<.<.<.<.<.<.<.<.<.,.>.>.>.>.>.>.>.:.:.:.:.:.:.:.:.:.:.:.:.-.=.$.o.` R R P P 1.1.1.1.1.1.1.1.1.1.1.1.1.1.",
"1.1.1.1.1.1.1.  %.&.=.=.:.:.>.>.>.>.>.>.,.,.<.<.<.>.>.>.>.>.>.>.>.:.:.:.:.:.:.:.:.:.:.:.:.:.:.:.:.-.=.&.o.' R R P P 1.1.1.1.1.1.1.1.1.1.1.1.1.1.",
"1.1.1.1.1.1.1.  &.&.=.:.:.>.>.>.>.>.>.>.>.>.>.,.>.>.>.>.>.>.>.>.:.:.:.:.:.:.:.:.:.:.:.:.:.:.:.:.:.:.-.&.@.' R R P P   1.1.1.1.1.1.1.1.1.1.1.1.1.",
"1.1.1.1.1.1.1.  &.=.=.:.:.>.>.>.>.>.>.>.>.>.>.>.>.>.>.>.>.>.:.:.:.:.:.:.:.:.:.:.:.:.:.:.:.:.:.:.:.:.=.%.+.' R Y P P   1.1.1.1.1.1.1.1.1.1.1.1.1.",
"1.1.1.1.1.1.1.1.=.=.=.:.:.>.>.>.>.:.>.>.>.>.>.>.>.>.>.>.>.>.:.:.:.:.:.:.:.:.:.:.:.:.:.:.:.:.:.:.:.-.=.$.o.` R Y P P   1.1.1.1.1.1.1.1.1.1.1.1.1.",
"1.1.1.1.1.1.1.1.$.&.=.:.:.:.>.>.>.>.:.:.>.>.>.>.>.>.>.>.>.:.:.:.:.:.:.:.:.:.:.:.:.:.:.:.:.:.-.-.=.=.&.@.' ) R I P P   1.1.1.1.1.1.1.1.1.1.1.1.1.",
"1.1.1.1.1.1.1.1.  &.&.=.:.:.>.>.>.>.>.:.:.:.:.:.:.:.:.:.:.:.:.:.:.:.:.:.:.:.:.:.:.:.:.:.:.-.-.=.=.&.$.o.` ) R P P P 1.1.1.1.1.1.1.1.1.1.1.1.1.1.",
"1.1.1.1.1.1.1.1.1.$.&.=.=.:.:.:.:.>.>.>.>.:.:.:.:.:.:.:.:.:.:.:.:.:.-.-.-.:.:.:.:.:.:.-.=.=.=.=.&.$.o.' ) R R P P   1.1.1.1.1.1.1.1.1.1.1.1.1.1.",
"1.1.1.1.1.1.1.1.1.  $.&.&.=.=.=.=.-.:.:.:.:.:.:.:.:.:.:.:.:.:.:.-.-.-.=.=.-.-.-.=.=.=.=.&.&.%.$.@.o.' ) ) R I P P 1.1.1.1.1.1.1.1.1.1.1.1.1.1.1.",
"1.1.1.1.1.1.1.1.1.1.+.@.$.&.&.&.&.=.=.=.=.=.=.=.-.=.=.=.=.=.=.=.=.=.=.=.&.=.&.&.%.$.$.$.$.@.o.o.] ' ) Q R R P P   1.1.1.1.1.1.1.1.1.1.1.1.1.1.1.",
"1.1.1.1.1.1.1.1.1.1.1.] o.@.$.$.$.$.$.%.&.&.&.&.%.%.$.$.$.$.$.$.$.$.$.$.$.$.$.@.@.o.o.o.[ ' ' ` _ ) Q R R P P   1.1.1.1.1.1.1.1.1.1.1.1.1.1.1.1.",
"1.1.1.1.1.1.1.1.1.1.1.1.' [ o.o.o.o.+.+.@.@.@.@.@.@.@.@.@.@.@.+.o.o.o.o.o.o.[ ] ' ' ' ` ` ) ) ) ) Q R R P P 1.1.1.1.1.1.1.1.1.1.1.1.1.1.1.1.1.1.",
"1.1.1.1.1.1.1.1.1.1.1.1.1.  ' ' ' ' ' ' ' ] ] [ [ [ [ ] ] ' ] ' ' ' ' ' ` ` _ _ ) ) ) ) ) ) ) ) W R Y I   1.1.1.1.1.1.1.1.1.1.1.1.1.1.1.1.1.1.1.",
"1.1.1.1.1.1.1.1.1.1.1.1.1.1.1.1.    ) ) ) ) ) ) ) _ ) ) ) ) ) ) ) ) ) ) ) ) ) ) ) ) ) ) ) ) W R     1.1.1.1.1.1.1.1.1.1.1.1.1.1.1.1.1.1.1.1.1.1.",
"1.1.1.1.1.1.1.1.1.1.1.1.1.1.1.1.1.1.1.1.1.1.1.1.                                      1.1.1.1.1.1.1.1.1.1.1.1.1.1.1.1.1.1.1.1.1.1.1.1.1.1.1.1.1.",
"1.1.1.1.1.1.1.1.1.1.1.1.1.1.1.1.1.1.1.1.1.1.1.1.1.1.1.1.1.1.1.1.1.1.1.1.1.1.1.1.1.1.1.1.1.1.1.1.1.1.1.1.1.1.1.1.1.1.1.1.1.1.1.1.1.1.1.1.1.1.1.1.",
"1.1.1.1.1.1.1.1.1.1.1.1.1.1.1.1.1.1.1.1.1.1.1.1.1.1.1.1.1.1.1.1.1.1.1.1.1.1.1.1.1.1.1.1.1.1.1.1.1.1.1.1.1.1.1.1.1.1.1.1.1.1.1.1.1.1.1.1.1.1.1.1.",
"1.1.1.1.1.1.1.1.1.1.1.1.1.1.1.1.1.1.1.1.1.1.1.1.1.1.1.1.1.1.1.1.1.1.1.1.1.1.1.1.1.1.1.1.1.1.1.1.1.1.1.1.1.1.1.1.1.1.1.1.1.1.1.1.1.1.1.1.1.1.1.1.",
"1.1.1.1.1.1.1.1.1.1.1.1.1.1.1.1.1.1.1.1.1.1.1.1.1.1.1.1.1.1.1.1.1.1.1.1.1.1.1.1.1.1.1.1.1.1.1.1.1.1.1.1.1.1.1.1.1.1.1.1.1.1.1.1.1.1.1.1.1.1.1.1.",
"1.1.1.1.1.1.1.1.1.1.1.1.1.1.1.1.1.1.1.1.1.1.1.1.1.1.1.1.1.1.1.1.1.1.1.1.1.1.1.1.1.1.1.1.1.1.1.1.1.1.1.1.1.1.1.1.1.1.1.1.1.1.1.1.1.1.1.1.1.1.1.1.",
"1.1.1.1.1.1.1.1.1.1.1.1.1.1.1.1.1.1.1.1.1.1.1.1.1.1.1.1.1.1.1.1.1.1.1.1.1.1.1.1.1.1.1.1.1.1.1.1.1.1.1.1.1.1.1.1.1.1.1.1.1.1.1.1.1.1.1.1.1.1.1.1.",
"1.1.1.1.1.1.1.1.1.1.1.1.1.1.1.1.1.1.1.1.1.1.1.1.1.1.1.1.1.1.1.1.1.1.1.1.1.1.1.1.1.1.1.1.1.1.1.1.1.1.1.1.1.1.1.1.1.1.1.1.1.1.1.1.1.1.1.1.1.1.1.1.",
"1.1.1.1.1.1.1.1.1.1.1.1.1.1.1.1.1.1.1.1.1.1.1.1.1.1.1.1.1.1.1.1.1.1.1.1.1.1.1.1.1.1.1.1.1.1.1.1.1.1.1.1.1.1.1.1.1.1.1.1.1.1.1.1.1.1.1.1.1.1.1.1.",
"1.1.1.1.1.1.1.1.1.1.1.1.1.1.1.1.1.1.1.1.1.1.1.1.1.1.1.1.1.1.1.1.1.1.1.1.1.1.1.1.1.1.1.1.1.1.1.1.1.1.1.1.1.1.1.1.1.1.1.1.1.1.1.1.1.1.1.1.1.1.1.1.",
"1.1.1.1.1.1.1.1.1.1.1.1.1.1.1.1.1.1.1.1.1.1.1.1.1.1.1.1.1.1.1.1.1.1.1.1.1.1.1.1.1.1.1.1.1.1.1.1.1.1.1.1.1.1.1.1.1.1.1.1.1.1.1.1.1.1.1.1.1.1.1.1."
};
