/* XPM */
static char *_529483326269[] = {
/* columns rows colors chars-per-pixel */
"71 79 92 1 ",
"  c black",
". c #111111",
"X c #220000",
"o c #221111",
"O c #222222",
"+ c #332222",
"@ c gray20",
"# c #443322",
"$ c #443333",
"% c #444433",
"& c #554433",
"* c #664433",
"= c #444444",
"- c #554444",
"; c #555544",
": c #444455",
"> c #554455",
", c #555555",
"< c #664444",
"1 c #665544",
"2 c #775544",
"3 c #665555",
"4 c #775555",
"5 c #776644",
"6 c #776655",
"7 c #555566",
"8 c #665566",
"9 c gray40",
"0 c #776666",
"q c #666677",
"w c #776677",
"e c #777777",
"r c #990000",
"t c #AA0000",
"y c #BB0000",
"u c #886655",
"i c #887755",
"p c #886666",
"a c #887766",
"s c #997766",
"d c #998800",
"f c #CCBB00",
"g c #DDBB00",
"h c #DDCC00",
"j c #DDDD00",
"k c #EECC00",
"l c #EEDD00",
"z c #FFDD00",
"x c #EEEE00",
"c c #FFEE00",
"v c yellow",
"b c #998877",
"n c #AA8877",
"m c #777788",
"M c #778888",
"N c #77CCEE",
"B c #888888",
"V c #888899",
"C c #889999",
"Z c gray60",
"A c #AA8888",
"S c #AA9988",
"D c #BB9988",
"F c #BB9999",
"G c #BBAA99",
"H c #9999AA",
"J c #99AAAA",
"K c #AAAAAA",
"L c #AAAABB",
"P c #AABBBB",
"I c #BBBBBB",
"U c #CCAA99",
"Y c #CCAAAA",
"T c #CCBBAA",
"R c #DDBBAA",
"E c #DDBBBB",
"W c #DDCCBB",
"Q c #BBBBCC",
"! c #BBCCCC",
"~ c gray80",
"^ c #DDCCCC",
"/ c #CCCCDD",
"( c #CCDDDD",
") c #DDDDDD",
"_ c #DDDDEE",
"` c #DDEEEE",
"' c #CCEEFF",
"] c #EEEEEE",
"[ c #EEEEFF",
"{ c #EEFFFF",
"} c white",
"| c None",
/* pixels */
"|||||||||||||||||||||||||||||||||||||||||||||||||||||||||||||||||||||||",
"|||||||||||||||||||||||||||||||||||||||||||||||||||||||||||||||||||||||",
"|||||||||||||||||||||||||||||||||||||||||||||||||||||||||||||||||||||||",
"|||||||||||||||||||||||||||||||||||||||||||||||||||||||||||||||||||||||",
"|||||||||||||||||||||||||||||||||||||||||||||||||||||||||||||||||||||||",
"|||||||||||||||||||||||||||||||||||||||||||||||||||||||||||||||||||||||",
"|||||||||||||||||||||||||||||||||||||||||||||||||||||||||||||||||||||||",
"|||||||||||||||||||||||||||||||||||||||||||||||||||||||||||||||||||||||",
"|||||||||||||||||||||||||||||||||||||||||||||||||||||||||||||||||||||||",
"||||||||||||||||||||||||||||||||||||     ||||||||||||||||||||||||||||||",
"||||||||||||||||||||||||||||||    WERTGGDSSS  |||||||||||||||||||||||||",
"|||||||||||||||||||||||||||  ^^WWERTGFSSSSSSSnS  ||||||||||||||||||||||",
"||||||||||||||||||||||||| WWWWWERTYGGDSSSSSSa14abb ||||||||||||||||||||",
"||||||||||||||||||||||  WWE            anSSSSba21aaa ||||||||||||||||||",
"||||||||||||||||||||  WWRT vvvvzzzzvv 11snSSSSSSnp6iu6|||||||||||||||||",
"|||||||||||||||||| WWETUF vvzzzzyyzvv *1usbbnASSSSa&566||||||||||||||||",
"|||||||||||||||| RRTUDnsa zzzyyyztzc 1*11166uasbbnAbu665 ||||||||||||||",
"|||||||||||||||UUGFnsu51 vztttttkkhl ****11111126asbbau65 |||||||||||||",
"||||||||||||||DDAba61111 xkktrrggjhj &**********116uasau66 ||||||||||||",
"|||||||||||||SSba6111*&& jjgrrrrgjjl --<----<&****1116aau66 |||||||||||",
"||||||||||||Snsu611*&&&& hhfgrrrhxxx -&&%&&---&1*****116uu66 ||||||||||",
"|||||||||||Sbau611*&-&&& hhgghrkkxxx 11-$oo.$&1111*****156u66 |||||||||",
"||||||||||Snau611<&&&.   jjhrtttkkll 31000=-+. %3111****116666 ||||||||",
"||||||||| nsa611&-&  ,300 xkkttttkll 310ww w09$  &11-<***116666||||||||",
"|||||||| Aba611--  300 $9 ccztttkkll +&,9@ 9w0w93  &1--****1666u|||||||",
"|||||||| nsa11<& -0009  $ vzzttkkkxx       O,99O38@  ;--<***166ia||||||",
"||||||||Sba6<1& .9  $,>   vztktttklc mmm        900,  $--<***16ias|||||",
"||||||| nbi111  99$   O   xkttkkltzz VVVVBme  @@>9000   -&&**116aa ||||",
"||||||| ns611$ 3993=    m lktkttzzyz VVVVVVVMq  @$-= w   -&&&*116aa||||",
"||||||| na611 +O>93@   VV xktzyyzzyz VVVVVVVVVm7    -09   -&&&*11ua |||",
"||||||| na611 -=    O VVV kzyzzyzzyzz VVVVVVZVVVq  =3003@ .1-&&*16i6|||",
"||||||||na61$ 33-O   VV,, ltyzyzzzyyz CCVV,,,HZCC7  @9009  o11&*116a ||",
"||||||||ns61& 333-   C,   zyzzyyzzzyz HKL7   7HZZV:     ee  11*&*16a ||",
"|||||||| b611 $     H9 }' zdzzzyzvzyz KIe }'' 7HZCm o ,00e9 +41&*15a ||",
"|||||||| ba21  @ .  IB '' vvzyzzzvzzz KIe ''N 7HHZV7  -00e0  61*&15a ||",
"|||||||||na61#  -   `[V   vvzzzvvvvvv KI/B   9HHHZZm    Oe9  61*&16i ||",
"||||||||| b611  %3 (][[V vvvvvv       HP~_BBB/LHHHZV ,o      61*&16a|||",
"||||||||||ba111  3 _][[[       qqqV HHHL/)`]]]/PKHHV9 -w08$ &61*&16a|||",
"|||||||||||a5111  )`][[[[])QJH qqVH PIQQ/)`]]]_/LJHZM   +0  461**16 |||",
"||||||||||||61*6 __]][[[[[_/!!  VHH //(/)_]]]]]_~LJHV      1651**1u||||",
"||||||||||||| 1A ``]][[[[[`____XVH _]]]]]]]]]]]])QKHHC    16511*16a||||",
"||||||||||||||  )_]][[[[[[]]]][ HH [[[[[[[]]]]]]`/LJHH   121111*1u|||||",
"||||||||||||||| _`]][[[[[[[[[[[[  [[[[[[[[]]]]]]]_~LJJ 111&111116 |||||",
"|||||||||||||| (_]][[[[[[[[[[[[[[[[[[[[[[[[]]]]]]])PJJJ 1111*116 ||||||",
"|||||||||||||| _`]][[[[[[[[[[[[[[[[[[[[[[[[]]]]]]]_!LJJ 111*116 |||||||",
"||||||||||||||/_]][[{[[[[[[[[[[[[[[[[[[[[[[]]]]]]]_/LJJH 661  |||||||||",
"||||||||||||| _]]][[{[[[[[[[[[[[[[[[[[[[[[[]]]]]]]_/QKJH   ||||||||||||",
"||||||||||||| _]]][[[{[[[[[[[[[[[[[[[[[[[[[]]]]]]]`)QLJJH |||||||||||||",
"||||||||||||| `]]][[}{[[[[[[[[[[[[[[[[[[[[]]]]]]]]_)~LKJH |||||||||||||",
"||||||||||||| `]]][[}}[[[[[[[[[[[[[[[[[[[[]]]]]]]`_)!LKJJ |||||||||||||",
"|||||||||||||_`]]][[}}{[[[[[[[[[[[[[[[[[[[]]]]]]]__/QLKJJJ|||||||||||||",
"|||||||||||||``]]][[}}[[[[[[[[[[[[[[[[[[[]]]]]]]__)/QLKJKK|||||||||||||",
"|||||||||||||``]]][[[}}[[[[[[[[[[[[[[[[[]]]]]]]]__)~QLKKKL ||||||||||||",
"|||||||||||||_``]]]][[[[[[[[[[[[[[[[[[[]]]]]]]]`_)/QILKJLL ||||||||||||",
"|||||||||||||_``]]]][[[}[[[[[[[[[[[[[[[[]]]]]]`_)//QLLJJLL ||||||||||||",
"|||||||||||||__`]]]]][[[[[[[[[[[[[[[[[[]]]]]]`__//~QLKJJLL ||||||||||||",
"|||||||||||||)_`]]]]][[[[{[[}}[[[[[[[[]]]]]]`__//~QILKHJLL ||||||||||||",
"|||||||||||||)__]]]]]][[[[[{[[[[[[[[[]]]]]]`__(/~!QLLHHKLL|||||||||||||",
"|||||||||||||/)_`]]]]]][[[[[[[[[[[[]]]]]]]`_)//~QQLLHHHLLP|||||||||||||",
"||||||||||||| /)_`]]]]]]]]]][[]]]]]]]]]]]__)/~~QQPLJHHHLP |||||||||||||",
"||||||||||||| /(_`]]`]]]]]]]]]]]]]]]]]]`_)//~!QQPLHHHHKLI |||||||||||||",
"||||||||||||||!/(_```___`]]]]]]]]]]]`__)//~QQQQPLHHZHHLPI||||||||||||||",
"|||||||||||||| Q~/___________________)//~QQQQQLLHHZZHKPQ ||||||||||||||",
"||||||||||||||| Q~/))))///((()))(()///!QQQQQPLKHHZZHKLQQ|||||||||||||||",
"||||||||||||||||QQ~/)(//~~~///////~~!QQQQQILLKHZZHHKLQQ||||||||||||||||",
"|||||||||||||||||IQ!///~!QQQQ!!~!QQQQQQIILLLHHZZZHKLQQ ||||||||||||||||",
"||||||||||||||||| IQQ~~!QQQQQQQQQQIIPLLLLLKHHZZHHLPQQ |||||||||||||||||",
"|||||||||||||||||||IIQQQQQQIIPPPLLLLLLLKKJHHHHHJLIQQ|||||||||||||||||||",
"||||||||||||||||||||IIIQQQIIPLLLLLLLLKJHHHHHHKLIQI ||||||||||||||||||||",
"||||||||||||||||||||| PPPPIPLLLLLLLLKJHHHJKLLPQQ ||||||||||||||||||||||",
"|||||||||||||||||||||||  LPLPLLLLLLLKKKKKLLIQQ ||||||||||||||||||||||||",
"|||||||||||||||||||||||||||  PPPLLLLLLPIIQQ  ||||||||||||||||||||||||||",
"|||||||||||||||||||||||||||||||||        ||||||||||||||||||||||||||||||",
"|||||||||||||||||||||||||||||||||||||||||||||||||||||||||||||||||||||||",
"|||||||||||||||||||||||||||||||||||||||||||||||||||||||||||||||||||||||",
"|||||||||||||||||||||||||||||||||||||||||||||||||||||||||||||||||||||||",
"|||||||||||||||||||||||||||||||||||||||||||||||||||||||||||||||||||||||",
"|||||||||||||||||||||||||||||||||||||||||||||||||||||||||||||||||||||||",
"|||||||||||||||||||||||||||||||||||||||||||||||||||||||||||||||||||||||"
};
