/* XPM */
static char *_529483320703[] = {
/* columns rows colors chars-per-pixel */
"88 79 97 2 ",
"   c black",
".  c #111111",
"X  c #222222",
"o  c #332222",
"O  c #333322",
"+  c gray20",
"@  c #443322",
"#  c #553322",
"$  c #443333",
"%  c #553333",
"&  c #444433",
"*  c #554433",
"=  c #664433",
"-  c #444444",
";  c #554444",
":  c #554455",
">  c #555555",
",  c #664444",
"<  c #665544",
"1  c #775544",
"2  c #665555",
"3  c #775555",
"4  c #776644",
"5  c #776655",
"6  c #555566",
"7  c #665566",
"8  c gray40",
"9  c #776666",
"0  c #666677",
"q  c #776677",
"w  c #777777",
"e  c #990000",
"r  c #AA0000",
"t  c #BB0000",
"y  c #886655",
"u  c #887755",
"i  c #886666",
"p  c #887765",
"a  c #887766",
"s  c #997766",
"d  c #887777",
"f  c #997777",
"g  c #DDCC00",
"h  c #DDDD00",
"j  c #EECC00",
"k  c #EEDD00",
"l  c #FFDD00",
"z  c #EEEE00",
"x  c #FFEE00",
"c  c yellow",
"v  c #998877",
"b  c #AA8877",
"n  c #777788",
"m  c #778888",
"M  c #77CCEE",
"N  c #888888",
"B  c #998888",
"V  c #888899",
"C  c #998899",
"Z  c #889999",
"A  c gray60",
"S  c #AA8888",
"D  c #AA9988",
"F  c #BA9988",
"G  c #BB9988",
"H  c #AA9999",
"J  c #BB9999",
"K  c #BBAA99",
"L  c #9999AA",
"P  c #99AAAA",
"I  c #AAAAAA",
"U  c #BBAAAA",
"Y  c #AAAABB",
"T  c #AABBBB",
"R  c #BBBBBB",
"E  c #CCAA99",
"W  c #CCAAAA",
"Q  c #CCBBAA",
"!  c #DDBBAA",
"~  c #DDBBBB",
"^  c #DDCCBB",
"/  c #BBBBCC",
"(  c #BBCCCC",
")  c gray80",
"_  c #DDCCCC",
"`  c #CCCCDD",
"'  c #CCDDDD",
"]  c #DDDDDD",
"[  c #EECCCC",
"{  c #DDDDEE",
"}  c #DDEEEE",
"|  c #CCEEFF",
" . c #EEEEEE",
".. c #EEEEFF",
"X. c #EEFFFF",
"o. c white",
"O. c None",
/* pixels */
"O.O.O.O.O.O.O.O.O.O.O.O.O.O.O.O.O.O.O.O.O.O.O.O.O.O.O.O.O.O.O.O.O.O.O.O.O.O.O.O.O.O.O.O.O.O.O.O.O.O.O.O.O.O.O.O.O.O.O.O.O.O.O.O.O.O.O.O.O.O.O.O.O.O.O.O.O.O.O.O.O.O.O.O.O.O.O.O.",
"O.O.O.O.O.O.O.O.O.O.O.O.O.O.O.O.O.O.O.O.O.O.O.O.O.O.O.O.O.O.O.O.O.O.O.O.O.O.O.O.O.O.O.O.O.O.O.O.O.O.O.O.O.O.O.O.O.O.O.O.O.O.O.O.O.O.O.O.O.O.O.O.O.O.O.O.O.O.O.O.O.O.O.O.O.O.O.O.",
"O.O.O.O.O.O.O.O.O.O.O.O.O.O.O.O.O.O.O.O.O.O.O.O.O.O.O.O.O.O.O.O.O.O.O.O.O.O.O.O.O.O.O.O.O.O.O.O.O.O.O.O.O.O.O.O.O.O.O.O.O.O.O.O.O.O.O.O.O.O.O.O.O.O.O.O.O.O.O.O.O.O.O.O.O.O.O.O.",
"O.O.O.O.O.O.O.O.O.O.O.O.O.O.O.O.O.O.O.O.O.O.O.O.O.O.O.O.O.O.O.O.O.O.O.O.O.O.O.O.O.O.O.O.O.O.O.O.O.O.O.O.O.O.O.O.O.O.O.O.O.O.O.O.O.O.O.O.O.O.O.O.O.O.O.O.O.O.O.O.O.O.O.O.O.O.O.O.",
"O.O.O.O.O.O.O.O.O.O.O.O.O.O.O.O.O.O.O.O.O.O.O.O.O.O.O.O.O.O.O.O.O.O.O.O.O.O.O.O.O.O.O.O.O.O.O.O.O.O.O.O.O.O.O.O.O.O.O.O.O.O.O.O.O.O.O.O.O.O.O.O.O.O.O.O.O.O.O.O.O.O.O.O.O.O.O.O.",
"O.O.O.O.O.O.O.O.O.O.O.O.O.O.O.O.O.O.O.O.O.O.O.O.O.O.O.O.O.O.O.O.O.O.O.O.O.O.O.O.O.O.O.O.O.O.O.O.O.O.O.O.O.O.O.O.O.O.O.O.O.O.O.O.O.O.O.O.O.O.O.O.O.O.O.O.O.O.O.O.O.O.O.O.O.O.O.O.",
"O.O.O.O.O.O.O.O.O.O.O.O.O.O.O.O.O.O.O.O.O.O.O.O.O.O.O.O.O.O.O.O.O.O.O.O.O.O.O.O.O.O.O.O.O.O.O.O.O.O.O.O.O.O.O.O.O.O.O.O.O.O.O.O.O.O.O.O.O.O.O.O.O.O.O.O.O.O.O.O.O.O.O.O.O.O.O.O.",
"O.O.O.O.O.O.O.O.O.O.O.O.O.O.O.O.O.O.O.O.O.O.O.O.O.O.O.O.O.O.O.O.O.O.O.O.O.O.O.O.O.O.O.O.O.O.O.O.O.O.O.O.O.O.O.O.O.O.O.O.O.O.O.O.O.O.O.O.O.O.O.O.O.O.O.O.O.O.O.O.O.O.O.O.O.O.O.O.",
"O.O.O.O.O.O.O.O.O.O.O.O.O.O.O.O.O.O.O.O.O.O.O.O.O.O.O.O.O.O.O.O.O.O.O.O.O.O.O.O.O.O.O.O.O.O.O.O.O.O.O.O.O.O.O.O.O.O.O.O.O.O.O.O.O.O.O.O.O.O.O.O.O.O.O.O.O.O.O.O.O.O.O.O.O.O.O.O.",
"O.O.O.O.O.O.O.O.O.O.O.O.O.O.O.O.O.O.O.O.O.O.O.O.O.O.O.O.O.O.O.O.O.O.O.O.O.O.O.O.O.O.O.O.O.O.O.O.O.O.O.O.O.O.O.O.O.O.O.O.O.O.O.O.O.O.O.O.O.O.O.O.O.O.O.O.O.O.O.O.O.O.O.O.O.O.O.O.",
"O.O.O.O.O.O.O.O.O.O.O.O.O.O.O.O.O.O.O.O.O.O.O.O.O.O.O.O.O.O.O.O.O.O.O.O.O.O.O.O.O.O.O.O.O.O.O.O.O.O.O.O.O.O.O.O.O.O.O.O.O.O.O.O.O.O.O.O.O.O.O.O.O.O.O.O.O.O.O.O.O.O.O.O.O.O.O.O.",
"O.O.O.O.O.O.O.O.O.O.O.O.O.O.O.O.O.O.O.O.O.O.O.O.O.O.O.O.O.O.O.O.O.O.O.O.O.O.O.O.O.O.O.O.O.O.O.O.O.O.O.O.O.O.O.O.O.O.O.O.O.O.O.O.O.O.O.O.O.O.O.O.O.O.O.O.O.O.O.O.O.O.O.O.O.O.O.O.",
"O.O.O.O.O.O.O.O.O.O.O.O.O.O.O.O.O.O.O.O.O.O.O.O.O.O.O.O.O.O.O.O.O.O.O.O.O.O.O.O.O.O.O.O.O.O.O.O.O.O.O.O.O.O.O.O.O.O.O.O.O.O.O.O.O.O.O.O.O.O.O.O.O.O.O.O.O.O.O.O.O.O.O.O.O.O.O.O.",
"O.O.O.O.O.O.O.O.O.O.O.O.O.O.O.O.O.O.O.O.O.O.O.O.O.O.O.O.O.O.O.O.O.O.O.O.O.O.O.O.O.O.O.O.O.O.O.O.O.O.O.O.O.O.O.O.O.O.O.O.O.O.O.O.O.O.O.O.O.O.O.O.O.O.O.O.O.O.O.O.O.O.O.O.O.O.O.O.",
"O.O.O.O.O.O.O.O.O.O.O.O.O.O.O.O.O.O.O.O.O.O.O.O.O.O.O.O.O.O.O.O.O.O.O.O.O.O.O.O.O.O.O.O.O.            O.O.O.O.O.O.O.O.O.O.O.O.O.O.O.O.O.O.O.O.O.O.O.O.O.O.O.O.O.O.O.O.O.O.O.O.O.",
"O.O.O.O.O.O.O.O.O.O.O.O.O.O.O.O.O.O.O.O.O.O.O.O.O.O.O.O.O.O.O.O.O.O.O.O.O.O.O.O.O.    ^ ~ Q W K G G D D b       O.O.O.O.O.O.O.O.O.O.O.O.O.O.O.O.O.O.O.O.O.O.O.O.O.O.O.O.O.O.O.O.",
"O.O.O.O.O.O.O.O.O.O.O.O.O.O.O.O.O.O.O.O.O.O.O.O.O.O.O.O.O.O.O.O.O.O.O.O.O.O.  [ [ [ _ ^ ! Q K J G G D D S b v v s   O.O.O.O.O.O.O.O.O.O.O.O.O.O.O.O.O.O.O.O.O.O.O.O.O.O.O.O.O.O.",
"O.O.O.O.O.O.O.O.O.O.O.O.O.O.O.O.O.O.O.O.O.O.O.O.O.O.O.O.O.O.O.O.O.O.O.O.  [ [ [ _ _ ~ Q E K K G G G G G D b s y s a a   O.O.O.O.O.O.O.O.O.O.O.O.O.O.O.O.O.O.O.O.O.O.O.O.O.O.O.O.",
"O.O.O.O.O.O.O.O.O.O.O.O.O.O.O.O.O.O.O.O.O.O.O.O.O.O.O.O.O.O.O.O.O.O.  [ [ [ [ _ _ ~ Q K K J G G D y y a b v y * 5 % 5 a a O.O.O.O.O.O.O.O.O.O.O.O.O.O.O.O.O.O.O.O.O.O.O.O.O.O.O.",
"O.O.O.O.O.O.O.O.O.O.O.O.O.O.O.O.O.O.O.O.O.O.O.O.O.O.O.O.O.O.O.O.    _ [ _ _ ^ ^ ! Q K K J G G G G G b 5 < < < < * % @ 1 a y O.O.O.O.O.O.O.O.O.O.O.O.O.O.O.O.O.O.O.O.O.O.O.O.O.O.",
"O.O.O.O.O.O.O.O.O.O.O.O.O.O.O.O.O.O.O.O.O.O.O.O.O.O.O.O.O.      _ _ _ ^ ^ ^ ~ ! Q K K J F G G G G G G G 1 < < < , * # * a u 5 O.O.O.O.O.O.O.O.O.O.O.O.O.O.O.O.O.O.O.O.O.O.O.O.O.",
"O.O.O.O.O.O.O.O.O.O.O.O.O.O.O.O.O.O.O.O.O.O.O.O.O.O.O.    [ _ ~ Q W K                         G G G G G D v 5 < y < % # # 5 y 5 O.O.O.O.O.O.O.O.O.O.O.O.O.O.O.O.O.O.O.O.O.O.O.O.",
"O.O.O.O.O.O.O.O.O.O.O.O.O.O.O.O.O.O.O.O.O.O.O.O.O.  _ _ ^ ^ ! E K K   c l l l l t t l c c c   D D D D D D D D D b v 5 # @ * y 5   O.O.O.O.O.O.O.O.O.O.O.O.O.O.O.O.O.O.O.O.O.O.O.",
"O.O.O.O.O.O.O.O.O.O.O.O.O.O.O.O.O.O.O.O.O.O.O.  ! ^ ! K J G D D D D   l l t t t l t l c c c   a s s v v v b b b v v s a % @ 5 5 5   O.O.O.O.O.O.O.O.O.O.O.O.O.O.O.O.O.O.O.O.O.O.",
"O.O.O.O.O.O.O.O.O.O.O.O.O.O.O.O.O.O.O.O.O.  K K K K D D D S b b v   c l t t r r l k k x x   * < y a a a a s s s s s s s s 5 a 5 5 5   O.O.O.O.O.O.O.O.O.O.O.O.O.O.O.O.O.O.O.O.O.",
"O.O.O.O.O.O.O.O.O.O.O.O.O.O.O.O.O.O.O.O.J G G G D D b v v s s s a   x k r r r r r j z z z   * < 5 y a a a a a a a a a a s s a y 5 5   O.O.O.O.O.O.O.O.O.O.O.O.O.O.O.O.O.O.O.O.O.",
"O.O.O.O.O.O.O.O.O.O.O.O.O.O.O.O.O.O.O.F G G D S v s a a a a a a a   z j j r r j j j z z z   * < 5 5 5 5 y u a a a a a a a a a a y 5 5   O.O.O.O.O.O.O.O.O.O.O.O.O.O.O.O.O.O.O.O.",
"O.O.O.O.O.O.O.O.O.O.O.O.O.O.O.O.O.O.F F D D v s a a a a a a a a a   z j j r r r r k x x x   * < y y y y y 5 5 5 5 y u a a a a a u y 5 5   O.O.O.O.O.O.O.O.O.O.O.O.O.O.O.O.O.O.O.",
"O.O.O.O.O.O.O.O.O.O.O.O.O.O.O.O.O.  G D b s a u y y y y a a y y y   z j r r r r l l c c c   & * 5 y y u y u 5 5 1 1 5 5 y a a a a u y y y   O.O.O.O.O.O.O.O.O.O.O.O.O.O.O.O.O.O.",
"O.O.O.O.O.O.O.O.O.O.O.O.O.O.O.O.O.G D v a y 5 5 y y 5 y y 5 5 5 9   j j r r k k l x x c c   * * < 5 y y y y i 5 5 1 < 1 4 5 y a a a a u y y   O.O.O.O.O.O.O.O.O.O.O.O.O.O.O.O.O.",
"O.O.O.O.O.O.O.O.O.O.O.O.O.O.O.O.  D v u 4 4 5 5 5 5 5 9 5 2 < ;   h g e e e r r j z z z x   * * * 2 9 i 9 i i i 5 5 1 < < < < 5 y a a a u y y y O.O.O.O.O.O.O.O.O.O.O.O.O.O.O.O.",
"O.O.O.O.O.O.O.O.O.O.O.O.O.O.O.O.G b a < < 1 5 5 5 5 ; + + $ - 2   h g g e e e g g k k k   & & &   < 9 9 9 9 9 9 9 5 5 5 3 < < < < 5 y a a u y y y O.O.O.O.O.O.O.O.O.O.O.O.O.O.O.",
"O.O.O.O.O.O.O.O.O.O.O.O.O.O.O.O.D s 4 = < 5 5 3 $ X $ > 9 7 + 2   k k j r e g g k k k k                 q 9   2 9 9 9 9 5 5 5 < < < < 5 y u u y y y O.O.O.O.O.O.O.O.O.O.O.O.O.O.",
"O.O.O.O.O.O.O.O.O.O.O.O.O.O.O.  D a < * < 5 * X $ 2 w d w 2       z j j r r r j k k k k   n n w n N V N       B B d a 9 9 i 5 5 < < * = < 5 y y y 5 5 O.O.O.O.O.O.O.O.O.O.O.O.O.",
"O.O.O.O.O.O.O.O.O.O.O.O.O.O.O.  D 5 = < 5 < . $ w $ o 8 8 $ X     z j r r r r j j g k k   m m N N m n n n n V     C 9 ; 2 9 i y 5 4 = * * < 1 5 5 5 5 y O.O.O.O.O.O.O.O.O.O.O.O.",
"O.O.O.O.O.O.O.O.O.O.O.O.O.O.O.  b 4 * < 5   X 9 w w .           k j j r j j j j r j k k   V V V V V V V V V m N V     2 2 2 2 i y y 5 = * * * < 5 5 5 5   O.O.O.O.O.O.O.O.O.O.O.",
"O.O.O.O.O.O.O.O.O.O.O.O.O.O.O.O.v 1 < < *   $ w d 9 : - X   m   g g r r r r j j r j z   V V V Z Z A L L L A Z V V n 0   d d > 2 9 a a 5 < * * * < 5 5 5 5 O.O.O.O.O.O.O.O.O.O.O.",
"O.O.O.O.O.O.O.O.O.O.O.O.O.O.O.O.  5 < < @   $ w q 2 $     V L   j r r j r r j j r k x   Z A A A A L L L L L L L Z V V Z   d > - 2 9 a a 5 < * * * < 5 5 5   O.O.O.O.O.O.O.O.O.O.",
"O.O.O.O.O.O.O.O.O.O.O.O.O.O.O.O.  5 1 1 ,   . 2 +         A   k r r j j j r j j r j z   L L L L A L L 6 6 6 L L L A V Z 0   . - o o 5 a i 1 * * * * < 5 5   O.O.O.O.O.O.O.O.O.O.",
"O.O.O.O.O.O.O.O.O.O.O.O.O.O.O.O.O.  5 5 5     o 9 w 2 > X L   l r l l l r r k k r j   L L L L L L L 6       6 L L L A A V V   R I .   i i 5 < * * * * 1 5   O.O.O.O.O.O.O.O.O.O.",
"O.O.O.O.O.O.O.O.O.O.O.O.O.O.O.O.O.O.5 5 5 @       8 2   A   c l l l l t l l l t r l   L L L Y / R 8   o.| |   6 L L L A A N     d 9     i 5 1 * * & * < 5   O.O.O.O.O.O.O.O.O.O.",
"O.O.O.O.O.O.O.O.O.O.O.O.O.O.O.O.O.O.  y 5 5 ;           P   c c c c l t l c l t l l   L L   Y / ` N   | | M   6 L L L A A V       o     2 5 3 < * * * < 5   O.O.O.O.O.O.O.O.O.O.",
"O.O.O.O.O.O.O.O.O.O.O.O.O.O.O.O.O.O.O.  a u 5 5       L   c c c c c l l l c l l l   L L L   R / ` } N       6 L L L L A L A V   H U $   a 5 1 * * & * < 5 O.O.O.O.O.O.O.O.O.O.O.",
"O.O.O.O.O.O.O.O.O.O.O.O.O.O.O.O.O.O.O.O.  v a y 5 a                 c c c c c c c         P / / '  . .N N w I L L L L L L L V     )     d 5 1 * * * * 1 5 O.O.O.O.O.O.O.O.O.O.O.",
"O.O.O.O.O.O.O.O.O.O.O.O.O.O.O.O.O.O.O.O.O.O.  a a   Y T ` ] { { ] /               L L L L I / ` {  . . . .} ` Y I I L L L L L     -     f y < * * * < 5   O.O.O.O.O.O.O.O.O.O.O.",
"O.O.O.O.O.O.O.O.O.O.O.O.O.O.O.O.O.O.O.O.O.O.O.    Y T ` { }  .{ ' T P L L L L L L L L L L Y ) ` {  . . . . .{ ( Y Y P L L L L L       * a 5 * * * < 4 5 O.O.O.O.O.O.O.O.O.O.O.O.",
"O.O.O.O.O.O.O.O.O.O.O.O.O.O.O.O.O.O.O.O.O.O.O.  / T ` { }  . . .` / / / / / R Y Y I L P I R ` ]  . . . . . .} ] / Y Y L L L L V     O 5 5 1 < * < 5 5 O.O.O.O.O.O.O.O.O.O.O.O.O.",
"O.O.O.O.O.O.O.O.O.O.O.O.O.O.O.O.O.O.O.O.O.O.  / ) ] { }  . ...{ ] ` ` ` ` ` ` ` ) / / / / / ` {  . . . . . . .{ ` / Y I L L L L   v y 5 5 4 < 1 5 5 O.O.O.O.O.O.O.O.O.O.O.O.O.O.",
"O.O.O.O.O.O.O.O.O.O.O.O.O.O.O.O.O.O.O.O.O.  ) ` ] {  . ....... . .} { ] ] ] ] ] ] ] ] ] ' ] {  . . . . . . . . .{ ` R Y L L L L   v u 5 5 5 5 5   O.O.O.O.O.O.O.O.O.O.O.O.O.O.O.",
"O.O.O.O.O.O.O.O.O.O.O.O.O.O.O.O.O.O.O.O.O.) ` ] { }  . ...X.X.X.X............. . .} { { { {  . . . . . . . . . .} ] / Y L L L L   v u y 5     O.O.O.O.O.O.O.O.O.O.O.O.O.O.O.O.O.",
"O.O.O.O.O.O.O.O.O.O.O.O.O.O.O.O.O.O.O.O.  ` ` { {  . .....X.o.o.o.o.o.X.X.X.X.X......... . . ..... . . . . . . .} { ` Y L L L L L       O.O.O.O.O.O.O.O.O.O.O.O.O.O.O.O.O.O.O.O.",
"O.O.O.O.O.O.O.O.O.O.O.O.O.O.O.O.O.O.O.O.` ` ] { }  .....X.o.o.o.o.o.o.o.o.o.o.o.o.o.o.X........... . . . . . . .} { ] / I L L L L   O.O.O.O.O.O.O.O.O.O.O.O.O.O.O.O.O.O.O.O.O.O.",
"O.O.O.O.O.O.O.O.O.O.O.O.O.O.O.O.O.O.O.  ` ] { {  . .....X.o.o.o.o.o.o.o.o.o.o.o.o.o.o.X........... . . . . . . . .{ { ) Y L L L L   O.O.O.O.O.O.O.O.O.O.O.O.O.O.O.O.O.O.O.O.O.O.",
"O.O.O.O.O.O.O.O.O.O.O.O.O.O.O.O.O.O.O.` ` ] { }  . .....X.o.o.o.o.o.o.o.o.o.o.o.o.o............... . . . . . . . .} { ' R L A Z V   O.O.O.O.O.O.O.O.O.O.O.O.O.O.O.O.O.O.O.O.O.O.",
"O.O.O.O.O.O.O.O.O.O.O.O.O.O.O.O.O.O.O.` ' ] { }  . .......o.o.o.o.o.o.o.o.o.o.o.X............... . . . . . . . . . .{ ] / L A V V V O.O.O.O.O.O.O.O.O.O.O.O.O.O.O.O.O.O.O.O.O.O.",
"O.O.O.O.O.O.O.O.O.O.O.O.O.O.O.O.O.O.  ` ] ] {  . . .........X.X.o.o.o.o.o................. . . . . . . . . . . . . .{ ] / L Z V V V O.O.O.O.O.O.O.O.O.O.O.O.O.O.O.O.O.O.O.O.O.O.",
"O.O.O.O.O.O.O.O.O.O.O.O.O.O.O.O.O.O.  ` ] { {  . . ...........X.X.o.o.o................. . . . . . . . . . . . . . .} ] R L A V N N O.O.O.O.O.O.O.O.O.O.O.O.O.O.O.O.O.O.O.O.O.O.",
"O.O.O.O.O.O.O.O.O.O.O.O.O.O.O.O.O.O.  ] ] { }  . . . ...............X................. . . . . . . . . . . . . . . .{ ` Y L A V m n   O.O.O.O.O.O.O.O.O.O.O.O.O.O.O.O.O.O.O.O.O.",
"O.O.O.O.O.O.O.O.O.O.O.O.O.O.O.O.O.O.O.] { { }  . . . . ........................... . . . . . . . . . . . . . . . .} ] ) Y L A V n n O.O.O.O.O.O.O.O.O.O.O.O.O.O.O.O.O.O.O.O.O.O.",
"O.O.O.O.O.O.O.O.O.O.O.O.O.O.O.O.O.O.O.  { {  . . . . . . . ....................... . . . . . . . . . . . . . . .} { ` / P L A V n n O.O.O.O.O.O.O.O.O.O.O.O.O.O.O.O.O.O.O.O.O.O.",
"O.O.O.O.O.O.O.O.O.O.O.O.O.O.O.O.O.O.O.  { {  . . . . . . . . ................... . . . . . . . . . .} } } } } { { ] ( Y L L A V n n O.O.O.O.O.O.O.O.O.O.O.O.O.O.O.O.O.O.O.O.O.O.",
"O.O.O.O.O.O.O.O.O.O.O.O.O.O.O.O.O.O.O.O.{ }  . . . . . . . . . . . . . . . . . . . . . . . . . .} } } } } } { { ] ` T P L A V m n   O.O.O.O.O.O.O.O.O.O.O.O.O.O.O.O.O.O.O.O.O.O.",
"O.O.O.O.O.O.O.O.O.O.O.O.O.O.O.O.O.O.O.O.   . . . . . . . . . . . . . . . . . . . . . . . .} } } } { { { { { ] ` ` / P L A Z V n n O.O.O.O.O.O.O.O.O.O.O.O.O.O.O.O.O.O.O.O.O.O.O.",
"O.O.O.O.O.O.O.O.O.O.O.O.O.O.O.O.O.O.O.O.O. . . . . . . . . . . . . . . . . . . . . .} } } } } { { { { { { ] ` ) R I L L Z V n n   O.O.O.O.O.O.O.O.O.O.O.O.O.O.O.O.O.O.O.O.O.O.O.",
"O.O.O.O.O.O.O.O.O.O.O.O.O.O.O.O.O.O.O.O.O.O. . . . . . . . . . . . . .} } } } } } { { { { { { { { { { ] ' ` ) R I L A A V n n n O.O.O.O.O.O.O.O.O.O.O.O.O.O.O.O.O.O.O.O.O.O.O.O.",
"O.O.O.O.O.O.O.O.O.O.O.O.O.O.O.O.O.O.O.O.O.O.   . .} } } } } } } { { { { { { { { { { { { { { { { { ] ] ` ` / T I L L A V N n n O.O.O.O.O.O.O.O.O.O.O.O.O.O.O.O.O.O.O.O.O.O.O.O.O.",
"O.O.O.O.O.O.O.O.O.O.O.O.O.O.O.O.O.O.O.O.O.O.O.  } { { { { { { { { { { { { { { { { { { { ] ] ] ] ` ` ` / / Y I L L Z V V n n   O.O.O.O.O.O.O.O.O.O.O.O.O.O.O.O.O.O.O.O.O.O.O.O.O.",
"O.O.O.O.O.O.O.O.O.O.O.O.O.O.O.O.O.O.O.O.O.O.O.O.  { { ] ] ] ] ] ' ' ` ' ' ] ] ' ' ' ` ` ` ` ` ) ) / R Y Y L L L V V N n n O.O.O.O.O.O.O.O.O.O.O.O.O.O.O.O.O.O.O.O.O.O.O.O.O.O.O.",
"O.O.O.O.O.O.O.O.O.O.O.O.O.O.O.O.O.O.O.O.O.O.O.O.O.O.] ' ` ` ` ` ) ) ) ) ) ` ` ` ` ` ` ) ) / / R T Y I L L L Z V V N V   O.O.O.O.O.O.O.O.O.O.O.O.O.O.O.O.O.O.O.O.O.O.O.O.O.O.O.O.",
"O.O.O.O.O.O.O.O.O.O.O.O.O.O.O.O.O.O.O.O.O.O.O.O.O.O.O.  ` ) ) / / / / / / / ( / / / / / R Y Y I L L L A Z V V V V V   O.O.O.O.O.O.O.O.O.O.O.O.O.O.O.O.O.O.O.O.O.O.O.O.O.O.O.O.O.",
"O.O.O.O.O.O.O.O.O.O.O.O.O.O.O.O.O.O.O.O.O.O.O.O.O.O.O.O.O.    / / R R T R R R T Y Y Y Y Y I P L L L A Z Z V       O.O.O.O.O.O.O.O.O.O.O.O.O.O.O.O.O.O.O.O.O.O.O.O.O.O.O.O.O.O.O.",
"O.O.O.O.O.O.O.O.O.O.O.O.O.O.O.O.O.O.O.O.O.O.O.O.O.O.O.O.O.O.O.O.O.O.                              O.O.O.O.O.O.O.O.O.O.O.O.O.O.O.O.O.O.O.O.O.O.O.O.O.O.O.O.O.O.O.O.O.O.O.O.O.O.O.",
"O.O.O.O.O.O.O.O.O.O.O.O.O.O.O.O.O.O.O.O.O.O.O.O.O.O.O.O.O.O.O.O.O.O.O.O.O.O.O.O.O.O.O.O.O.O.O.O.O.O.O.O.O.O.O.O.O.O.O.O.O.O.O.O.O.O.O.O.O.O.O.O.O.O.O.O.O.O.O.O.O.O.O.O.O.O.O.O.",
"O.O.O.O.O.O.O.O.O.O.O.O.O.O.O.O.O.O.O.O.O.O.O.O.O.O.O.O.O.O.O.O.O.O.O.O.O.O.O.O.O.O.O.O.O.O.O.O.O.O.O.O.O.O.O.O.O.O.O.O.O.O.O.O.O.O.O.O.O.O.O.O.O.O.O.O.O.O.O.O.O.O.O.O.O.O.O.O.",
"O.O.O.O.O.O.O.O.O.O.O.O.O.O.O.O.O.O.O.O.O.O.O.O.O.O.O.O.O.O.O.O.O.O.O.O.O.O.O.O.O.O.O.O.O.O.O.O.O.O.O.O.O.O.O.O.O.O.O.O.O.O.O.O.O.O.O.O.O.O.O.O.O.O.O.O.O.O.O.O.O.O.O.O.O.O.O.O.",
"O.O.O.O.O.O.O.O.O.O.O.O.O.O.O.O.O.O.O.O.O.O.O.O.O.O.O.O.O.O.O.O.O.O.O.O.O.O.O.O.O.O.O.O.O.O.O.O.O.O.O.O.O.O.O.O.O.O.O.O.O.O.O.O.O.O.O.O.O.O.O.O.O.O.O.O.O.O.O.O.O.O.O.O.O.O.O.O.",
"O.O.O.O.O.O.O.O.O.O.O.O.O.O.O.O.O.O.O.O.O.O.O.O.O.O.O.O.O.O.O.O.O.O.O.O.O.O.O.O.O.O.O.O.O.O.O.O.O.O.O.O.O.O.O.O.O.O.O.O.O.O.O.O.O.O.O.O.O.O.O.O.O.O.O.O.O.O.O.O.O.O.O.O.O.O.O.O.",
"O.O.O.O.O.O.O.O.O.O.O.O.O.O.O.O.O.O.O.O.O.O.O.O.O.O.O.O.O.O.O.O.O.O.O.O.O.O.O.O.O.O.O.O.O.O.O.O.O.O.O.O.O.O.O.O.O.O.O.O.O.O.O.O.O.O.O.O.O.O.O.O.O.O.O.O.O.O.O.O.O.O.O.O.O.O.O.O.",
"O.O.O.O.O.O.O.O.O.O.O.O.O.O.O.O.O.O.O.O.O.O.O.O.O.O.O.O.O.O.O.O.O.O.O.O.O.O.O.O.O.O.O.O.O.O.O.O.O.O.O.O.O.O.O.O.O.O.O.O.O.O.O.O.O.O.O.O.O.O.O.O.O.O.O.O.O.O.O.O.O.O.O.O.O.O.O.O."
};
