/* XPM */
static char *_529662122577[] = {
/* columns rows colors chars-per-pixel */
"67 73 47 1 ",
"  c black",
". c #442211",
"X c #442222",
"o c #443322",
"O c #553322",
"+ c #553333",
"@ c #554433",
"# c #664433",
"$ c #665544",
"% c #775544",
"& c #776655",
"* c #886655",
"= c #887755",
"- c #887766",
"; c #997766",
": c #EEEE00",
"> c yellow",
", c #998877",
"< c #AA8877",
"1 c #888899",
"2 c #889999",
"3 c gray60",
"4 c #A98888",
"5 c #AA8888",
"6 c #AA9988",
"7 c #BB9988",
"8 c #BB9999",
"9 c #BBAA99",
"0 c #9999AA",
"q c #99AAAA",
"w c #AAAAAA",
"e c #AAAABB",
"r c #BBBBBB",
"t c #CCAA99",
"y c #CCAAAA",
"u c #CCBBAA",
"i c #DDBBAA",
"p c #DDBBBB",
"a c #DDCCBB",
"s c #BBBBCC",
"d c #BBCCCC",
"f c gray80",
"g c #DDCCCC",
"h c #EECCCC",
"j c #EEDDDD",
"k c white",
"l c None",
/* pixels */
"lllllllllllllllllllllllllllllllllllllllllllllllllllllllllllllllllll",
"lllllllllllllllllllllllllllllllllllllllllllllllllllllllllllllllllll",
"lllllllllllllllllllllllllllllllllllllllllllllllllllllllllllllllllll",
"lllllllllllllllllllllllllllllllllllllllllllllllllllllllllllllllllll",
"lllllllllllllllllllllllllllllllllllllllllllllllllllllllllllllllllll",
"lllllllllllllllllllllllllllllllllllllllllllllllllllllllllllllllllll",
"lllllllllllllllllllllllllllllllllllllllllllllllllllllllllllllllllll",
"lllllllllllllllllllllllllllllllllllllllllllllllllllllllllllllllllll",
"lllllllllllllllllllllllllllllllllllllllllllllllllllllllllllllllllll",
"lllllllllllllllllllllllllllllllllllllllllllllllllllllllllllllllllll",
"lllllllllllllllllllllllllllllllllllllllllllllllllllllllllllllllllll",
"lllllllllllllllllllllllllllllllllllllllllllllllllllllllllllllllllll",
"lllllllllllllllllllllllllllllllllllllllllllllllllllllllllllllllllll",
"lllllllllllllllllllllllllllllllllllllllllllllllllllllllllllllllllll",
"lllllllllllllllllllllllllllllllllllllllllllllllllllllllllllllllllll",
"lllllllllllllllllllllllllllllllllllllllllllllllllllllllllllllllllll",
"lllllllllllllllllllllllllllllllllllllllllllllllllllllllllllllllllll",
"lllllllllllllllllllllllllllllllllllllllllllllllllllllllllllllllllll",
"lllllllllllllllllllllllllllllllllllllllllllllllllllllllllllllllllll",
"lllllllllllllllllllllllllllllllllllllllllllllllllllllllllllllllllll",
"lllllllllllllllllllllllllllllllllllllllllllllllllllllllllllllllllll",
"lllllllllllllllllllllllllllllllllllllllllllllllllllllllllllllllllll",
"lllllllllllllllllllllllllllllllllllllllllllllllllllllllllllllllllll",
"lllllllllllllllllllllllllllllllllllllllllllllllllllllllllllllllllll",
"lllllllllllllllllllllllllllllllllllllllllllllllllllllllllllllllllll",
"lllllllllllllllllllllllllllllllllllllllllllllllllllllllllllllllllll",
"lllllllllllllllllllllllllllllllllllllllllllllllllllllllllllllllllll",
"lllllllllllllllllllllllllllllllllllllllllllllllllllllllllllllllllll",
"lllllllllllllllllllllllllllllllllllllllllllllllllllllllllllllllllll",
"llllllllllllllllllllllll   ;;-----   llllllllllllllllllllllllllllll",
"lllllllllllllllllllll <,,,<,,,;;--;;-- llllllllllllllllllllllllllll",
"lllllllllllllllllll 55<<<<<,,,,,;--;,--- llllllllllllllllllllllllll",
"lllllllllllllllll 66666556<<<<,,,,;--;;--,lllllllllllllllllllllllll",
"llllllllllllllll566666665<<<<<<,,,,;--;,;-;llllllllllllllllllllllll",
"lllllllllllllll556666778665<<<<<,,,,;--;,;;;lllllllllllllllllllllll",
"llllllllllllll5<6677766666666<<<<,,,,;;;;,;; llllllllllllllllllllll",
"lllllllllllll5<6689887766666665<<<<,,,;;;;;;; lllllllllllllllllllll",
"llllllllllll <5689989877666666665<<,,,;;;;;;;; llllllllllllllllllll",
"lllllllllll <<69999888888776666665<,,,,;;---;;,llllllllllllllllllll",
"llllllllll <<699998888887877766666<<,,,;;---;;; lllllllllllllllllll",
"llllllllll <68999888999999887776666<,,,,;--=-;;, klllllllllllllllll",
"lllllllll <57999999tyuuytt9877776665<,,,;--*=-,,,   lllllllllllllll",
"lllllllll5569tyuuuiiiuuuyyy987776666<<,,,;=***-;,< df lllllllllllll",
"llllllll 569yyuiaaaaaapiutty98777666<<,,,;-****-;,5 fffllllllllllll",
"lllllll 6669yuaaaggggaaaiu9tt98776665<,,,;-=****-;,6 ffflllllllllll",
"lllllll66679uaaggjjjhgaapuuty99776665<<,,;--**&*=-;,5 fffllllllllll",
"llllll 66689iaahjjjjjhaapuuuyt99766665<,,,;--**&*=-;,< ff lllllllll",
"llllll66669yaagjjjjjjjgppuuuut99776666<<,,;--=**&*=-;, ffflllllllll",
"lllll 76668uaagjjjjjjjgapuuuut99966665<<,,;;--=*&&*=-;, ff llllllll",
"lllll976667uaagjjjjjjjgapuuuuy99966665<<,,,;---*&&&*-;; dffllllllll",
"llll 866666uaagjjjjjjjaaiuuuuy99976666<<<,,;;---*&&&*-; sff lllllll",
"llll 765666tpaggjjjjjgapuuuuyy999766665<<,,;;---*&&&&*;, sd lllllll",
"llll97656669uaaagghggaaiuuuutyt99777665<<,,;;;--=&&&&*-, rsslllllll",
"lll 97666667yupaaaaaapuuuuuy9tt99767655<<,,,;;--=*&&&&=, 0rrlllllll",
"lll9976666669uuuipppiuuuuuutytt99767655<<,,,;;--=**&&&*,7 welllllll",
"lll99766666679tuuuuuuuuuuyyyyt998776555<<,,,;;---**&&&=,7 0w llllll",
"llly976656666999yuuuuuuuyuutt9998766555<<,,;;;---**&&&*,9 1q llllll",
"ll u9766566666799tyyyyuuuyttt9987765555<,,,;;;---*&&&&&-9 1q llllll",
"ll i9766566666667999ttyttttt987766<5555<,,,;;;---*&&&&&-7 30 llllll",
"ll au8666<6666666677999tt999776665<555<<,,,;;----*&&&&&*6 23lllllll",
"ll hi9666656666666666779977666666<555<<,,,;;;---**&&&&&=6 23lllllll",
"lllja9666665666666666666666666665565<<,,,,;;;--=*&&&&&*-6 33lllllll",
"llljhu86666666666666666666666666665<<,,,,;;;---*&&&&&&*-5 33lllllll",
"lll ja9766666666666666655555555555<<,,,,,;;;--=*&&&&&&-; 33 lllllll",
"lllljhi966666666665<<<<556665655<<<,,,,,;;;---*&&&&&&*-- 33 lllllll",
"llll ha986666666666666666776666666<<<<<,;;---&%&&&&*---- 33llllllll",
"llll ap999766666666666666665<<<<555<&$$&;;*$#o&&&**---- 33 llllllll",
"lllll 6679uut96665<<<<,,,,,,,,,,,,,*@@@@@$ooo$*&**=---- 33 llllllll",
"     k ;,<89985<<,,,,;;;;;-;;---=$@++Oooooooo&&&*=-;-- 33 lllllllll",
" >>>>   **--------------==#%&&$$o.@@Xooo##Ooo&&*-;;-- 333 lllllllll",
"l  :::::     &&&****&&&&&&&#@$$$%&&&&$+#&&&&&&*-;;-  3333llllllllll",
"lllllllllll                                              llllllllll",
"kllllllllllllllllllllllllllllllllllllllllllllllllllllllllllllllllll"
};
