/* XPM */
static char *_529662118539[] = {
/* columns rows colors chars-per-pixel */
"76 74 74 1 ",
"  c black",
". c #443322",
"X c #553322",
"o c #553333",
"O c #554422",
"+ c #554433",
"@ c #664433",
"# c #665533",
"$ c #664444",
"% c #665544",
"& c #775544",
"* c #775555",
"= c #776644",
"- c #776655",
"; c #880000",
": c #990000",
"> c #AA0000",
", c #BB0000",
"< c #886655",
"1 c #887755",
"2 c #886666",
"3 c #887766",
"4 c #997766",
"5 c #BBAA00",
"6 c #BBBB00",
"7 c #CCAA00",
"8 c #CCBB00",
"9 c #DDBB00",
"0 c #CCCC00",
"q c #DDCC00",
"w c #DDDD00",
"e c #EEDD00",
"r c #FFDD00",
"t c #FFEE00",
"y c yellow",
"u c #998877",
"i c #AA8877",
"p c #777788",
"a c #778888",
"s c #888888",
"d c #888899",
"f c #889999",
"g c gray60",
"h c #AA8888",
"j c #AA9988",
"k c #BB9988",
"l c #BB9999",
"z c #BBAA99",
"x c #9999AA",
"c c #99AAAA",
"v c #AAAAAA",
"b c #AAAABB",
"n c #AABBBB",
"m c #BBBBBB",
"M c #CCAA99",
"N c #CCAAAA",
"B c #CCBBAA",
"V c #CCBBAB",
"C c #DDBBAA",
"Z c #DDBBBB",
"A c #DDCCBB",
"S c #BBBBCC",
"D c #BBCCCC",
"F c gray80",
"G c #DDCCCC",
"H c #CCCCDD",
"J c #CCDDDD",
"K c #DDDDDD",
"L c #DDDDEE",
"P c #DDEEEE",
"I c #EEEEEE",
"U c #EEEEFF",
"Y c white",
"T c None",
/* pixels */
"TTTTTTTTTTTTTTTTTTTTTTTTTTTTTTTTTTTTTTTTTTTTTTTTTTTTTTTTTTTTTTTTTTTTTTTTTTTT",
"TTTTTTTTTTTTTTTTTTTTTTTTTTTTTTTTTTTTTTTTTTTTTTTTTTTTTTTTTTTTTTTTTTTTTTTTTTTT",
"TTTTTTTTTTTTTTTTTTTTTTTTTTTTTTTTTTTTTTTTTTTTTTTTTTTTTTTTTTTTTTTTTTTTTTTTTTTT",
"TTTTTTTTTTTTTTTTTTTTTTTTTTTTTTTTTTTTTTTTTTTTTTTTTTTTTTTTTTTTTTTTTTTTTTTTTTTT",
"TTTTTTTTTTTTTTTTTTTTTTTTTTTTTTTTTTTTTTTTTTTTTTTTTTTTTTTTTTTTTTTTTTTTTTTTTTTT",
"TTTTTTTTTTTTTTTTTTTTTTTTTTTTTTTTTTTTTTTTTTTTTTTTTTTTTTTTTTTTTTTTTTTTTTTTTTTT",
"TTTTTTTTTTTTTTTTTTTTTTTTTTTTTTTTTTTTTTTTTTTTTTTTTTTTTTTTTTTTTTTTTTTTTTTTTTTT",
"TTTTTTTTTTTTTTTTTTTTTTTTTTTTTTTTTTTTTTTTTTTTTTTTTTTTTTTTTTTTTTTTTTTTTTTTTTTT",
"TTTTTTTTTTTTTTTTTTTTTTTTTTTTTTTTTTTTTTTTTTTTTTTTTTTTTTTTTTTTTTTTTTTTTTTTTTTT",
"TTTTTTTTTTTTTTTTTTTTTTTTTTTTTTTTTTTTTTTTTTTTTTTTTTTTTTTTTTTTTTTTTTTTTTTTTTTT",
"TTTTTTTTTTTTTTTTTTTTTTTTTTTTTTTTTTTTTTTTTTTTTTTTTTTTTTTTTTTTTTTTTTTTTTTTTTTT",
"TTTTTTTTTTTTTTTTTTTTTTTTTTTTTTTTTTTT   TTTTTTTTTTTTTTTTTTTTTTTTTTTTTTTTTTTTT",
"TTTTTTTTTTTTTTTTTTTTTTTTTTTTTTT  hiuu33-%%%%  TTTTTTTTTTTTTTTTTTTTTTTTTTTTTT",
"TTTTTTTTTTTTTTTTTTTTTTTTTTTTT Bzzjjjiu43<-&%=&% TTTTTTTTTTTTTTTTTTTTTTTTTTTT",
"TTTTTTTTTTTTTTTTTTTTTTTTTTTTZZZZBMzkjiu433<--==& TTTTTTTTTTTTTTTTTTTTTTTTTTT",
"TTTTTTTTTTTTTTTTTTTTTTTTTTTZZZZZZCBzzjiu433<---=%% TTTTTTTTTTTTTTTTTTTTTTTTT",
"TTTTTTTTTTTTTTTTTTTTTTTTTTZZZZZZZZBNzzjii431<---=%% YTTTTTTTTTTTTTTTTTTTTTTT",
"TTTTTTTTTTTTTTTTTTTTTTTTTCCCZZCZZZCBNzkhiu431----=%&  TTTTTTTTTTTTTTTTTTTTTT",
"TTTTTTTTTTTTTTTTTTTTTTTTCBBCZCBCZCCBNzzjhiu33<----==-<   TTTTTTTTTTTTTTTTTTT",
"TTTTTTTTTTTTTTTTTTTTTTTBCBCZCBCCBCCBMMzjhiu431-------<<<<   TTTTTTTTTTTTTTTT",
"TTTTTTTTTTTTTTTTTTTTTT CBBCZCBBBBBCBNMzjhiu433<-----<<<<<<3ujj TTTTTTTTTTTTT",
"TTTTTTTTTTTTTTTTTTTTT BBBBCZCBBBBBBBNzzjhiu433<-----<1<<<<<34ijjTTTTTTTTTTTT",
"TTTTTTTTTTTTTTTTTTTTY CBBBCCBBBBBBNMzzkjhiu4431------<<<<<<<34ihj TTTTTTTTTT",
"TTTTTTTTTTTTTTTTTTTY zBNBBBCBBBMMzzzzzjjiuu4433--------<<<<<<13ihj TTTTTTTTT",
"TTTTTTTTTTTTTTTTTTY zzzzzMBBBBzzzzzzzkjhiu44431<---------<<<<<13ijjTTTTTTTTT",
"TTTTTTTTTTTTTTTTTY ZBzzzzzMMzzzzzzzzljjiuu44333<------------<<<14jj TTTTTTTT",
"TTTTTTTTTTTTTTTT  GGZMzlkzzzzzzzzzzljjjiuu443331<------------<<<3ujhTTTTTTTT",
"TTTTTTTTTTTTTTT GAAZBzkklzzzzzzzzzkkjjiuuu443333<<------------<<<3ij TTTTTTT",
"TTTTTTTTTTTTTT GAZBBzzllllzzzzzzlkkjjjiuuu44333311<------------<<3ui TTTTTTT",
"TTTTTTTTTTTTT GAZCBBzzllllkkkkllkjjjjjiuuu44333331<<<-<<--------<3ui TTTTTTT",
"TTTTTTTTTTTTTGGZCCBzzlzllkkkkkkkjkjjjhuuuu4u4333331<<<<<<-------13uihTTTTTTT",
"TTTTTTTTTTTTAGGZCBNzllzlkkkkkkkkkkjjjhuuuuuu433333-<31131<<-----13uihTTTTTTT",
"TTTTTTTTTTTBAGAZCBMzzllkkkkkkkkkkjjjjiuuuuuu43333<.O1331311-----<3uhjTTTTTTT",
"TTTTTTTTTTTBAGAZCBNzzllkkkjkkkkkjjjjjjiuuu-+<4333%.@1111333<----<3ij TTTTTTT",
"TTTTTTTTTT MAGAZCBNzzlkkkkjkkkkkkkjjjjiuuu+++$%.X...<111133<----<3jk TTTTTTT",
"TTTTTTTTTTzzZGAZCBBzzzlkkkjkkkkkkkjjjjiuuu*++++.....-311111<----<ukkTTTTTTTT",
"TTTTTTTTTTkzCGAZZCBNzzzkkkkkkkkkkkjjjjiiuu2+++++X....+X...%-----3il TTTTTTTT",
"TTTTTTTTT izBAAZZCBBMzzzlkkkkkkkkkkjjjhiu<@++++++X.....X&1<-----4jlTTTTTTTTT",
"TTTTTTTTT 3jzCAAZZCBBNzzzkkkkkkkkkkjjjjh%++++++++X.....<1<-----3il TTTTTTTTT",
"TTTTTTTTTT<uzNAAZZZCBBMzzzlkllkkkkkkjjji$+$++++++o.....3<------ujlTTTTTTTTTT",
"TTTTTTTTTT14jzNAAZZZCBNzzzzlllkkkkkkkjju%%$$++++++...+-3<-----3jlTTTTTTTTTTT",
"TTTTTTTTTT uijzNZAAZZCCBzzzzzllkkkkklj3&%%%$$$+++++%-33<-----3ik TTTTTTTTTTT",
"TTTTTTTTTT uiijlMZAAAAAACBzzzzzzzllzzzzli&%%%%+++-333<--==--3ij TTTTTTTTTTTT",
"TTTTTTTTTTT uiijkzBAAGGGAZBBBNNNNNzzzzzzk&%%%%+++#33<-===--3ij TTTTTTTTTTTTT",
"TTTTTTTTTTTT3uiihjlMCAZZAZCCCCCCCCBzzzku&%%%%++++-3-=-==--3uj TTTTTTTTTTTTTT",
"TTTTTTTTTTTTT34uiijjlzzzNMNBBBBBBBMzzkiihui&%&<333-=&==--3uj  TTTTTTTTTTTTTT",
"TTTTTTTTTTTTT 33uiiihjjjjkkllzzzzlkkjjjjjjiuuu43--====-14i  ap TTTTTTTTTTTTT",
"TTTTTTTTTTTTTT <34uuiiiihhjjjjjjjjjjjjhiiuuu43<-====--34i aasspTTTTTTTTTTTTT",
"TTTTTTTTTTTTTTTT<<334433uiiihiiiiihhiiuuu443<-===---13u  aaaass TTTTTTTTTTTT",
"TTTTTTTTTTTTTTTTT <<<-%%--3344uuuuuu433<---====----1   sasssssspTTTTTTTTTTTT",
"TTTTTTTTTTTTTTTTTT  <-=&%%%&&-------=&&%%&&==----   sasssddddssp TTTTTTTTTTT",
"TTTTTTTTTTTTTTTTTTTT   --             %%%&=--    saassssddfddsss TTTTTTTTTTT",
"TTTTTTTTTTTTTTTTTTTT IL   008888999ww        asaassssddddxxdfdsspTTTTTTTTTTT",
"TTTTTTTTTTTTTTTTTTT LILHxd 85;;;5;5780 aaaaaassssssddddfxxxgddsspTTTTTTTTTTT",
"TTTTTTTTTTTTTTTTTTTHLIILmxd 77;;;;;5888 ssssssssdddddgxxbxxxddssa TTTTTTTTTT",
"TTTTTTTTTTTTTTTTTT HLIUIKmx eqq::::99ww sssdddddddgxxxvSSvxxfdsss TTTTTTTTTT",
"TTTTTTTTTTTTTTTTTTDHLIUUIKS trr>>>>>ett ddddffgxxxxxvmFHFbxxxdsss TTTTTTTTTT",
"TTTTTTTTTTTTTTTTT DHLIUYUUL yr,,rr,,ryy ggxxxxxxxxbSFHJKJbxxxdsssTTTTTTTTTTT",
"TTTTTTTTTTTTTTTTT DHKIIUYYU yrr,,,,rryy gggxxxcbnSFHKKLILbxxxdssaTTTTTTTTTTT",
"TTTTTTTTTTTTTTTTT DFKPIUUYY yyr,,,rryyy xxvnSSDHHJKLPIIIKbxxgdss TTTTTTTTTTT",
"TTTTTTTTTTTTTTTTTTDDHKIIIUU rrr,r,,rryy xxSFHKKLLIIIIIIIFvxxdsssTTTTTTTTTTTT",
"TTTTTTTTTTTTTTTTTT DDHKIIIU r,r,,r,,ryy gxSHKLIIIIIIIIIKSxxgdss TTTTTTTTTTTT",
"TTTTTTTTTTTTTTTTTTTSSDFKLII r,,rrr,,ry  xxmHKLIIIIIIIIKDbxxdsssTTTTTTTTTTTTT",
"TTTTTTTTTTTTTTTTTTTTSSSDHL r,,rr,,r,   gxvmHKKIIIIIILJSbxxdsppTTTTTTTTTTTTTT",
"TTTTTTTTTTTTTTTTTTTTTSSSSF ,,rr,,r  56 gxvmHKLIIIILKFmbxxdsppTTTTTTTTTTTTTTT",
"TTTTTTTTTTTTTTTTTTTTT  SS r,rr    666 ggcvSHKLILKJFSbvxddpppTTTTTTTTTTTTTTTT",
"TTTTTTTTTTTTTTTTTTTTTTY  yrr,,, 6666 ggxbnSHKKHFSmbcxgdapp TTTTTTTTTTTTTTTTT",
"TTTTTTTTTTTTTTTTTTTTTT yyyyr,rrr 6  xxxxxbmSSnbbvxgddsp  TTTTTTTTTTTTTTTTTTT",
"TTTTTTTTTTTTTTTTTTTTTTT     rry   xxxxxxxcxxxxxxxfd  TTTTTTTTTTTTTTTTTTTTTTT",
"TTTTTTTTTTTTTTTTTTTTTTTTTTTTTTTT              TTTTTTTTTTTTTTTTTTTTTTTTTTTTTT",
"TTTTTTTTTTTTTTTTTTTTTTTTTTTTTTTTTTTTTTTTTTTTTTTTTTTTTTTTTTTTTTTTTTTTTTTTTTTT",
"TTTTTTTTTTTTTTTTTTTTTTTTTTTTTTTTTTTTTTTTTTTTTTTTTTTTTTTTTTTTTTTTTTTTTTTTTTTT",
"TTTTTTTTTTTTTTTTTTTTTTTTTTTTTTTTTTTTTTTTTTTTTTTTTTTTTTTTTTTTTTTTTTTTTTTTTTTT",
"TTTTTTTTTTTTTTTTTTTTTTTTTTTTTTTTTTTTTTTTTTTTTTTTTTTTTTTTTTTTTTTTTTTTTTTTTTTT"
};
