/* XPM */
static char *_529662113116[] = {
/* columns rows colors chars-per-pixel */
"76 74 89 1 ",
"  c black",
". c #111111",
"X c #221111",
"o c #222222",
"O c #332222",
"+ c #333322",
"@ c gray20",
"# c #443322",
"$ c #443333",
"% c #444433",
"& c #554433",
"* c #664433",
"= c #444444",
"- c #554444",
"; c #554455",
": c #555555",
"> c #664444",
", c #665544",
"< c #775544",
"1 c #665555",
"2 c #775555",
"3 c #776644",
"4 c #776655",
"5 c #665566",
"6 c gray40",
"7 c #776666",
"8 c #666677",
"9 c #776677",
"0 c #777777",
"q c #AA6600",
"w c #BB6600",
"e c #BB7700",
"r c #CC7700",
"t c #886655",
"y c #887755",
"u c #886666",
"i c #887766",
"p c #997766",
"a c #BBAA00",
"s c #BBBB00",
"d c #CC8800",
"f c #CCBB00",
"g c #DDBB00",
"h c #CCCC00",
"j c #DDCC00",
"k c #DDDD00",
"l c #EECC00",
"z c #EEDD00",
"x c #FFDD00",
"c c #EEEE00",
"v c #FFEE00",
"b c yellow",
"n c #998877",
"m c #998977",
"M c #AA8877",
"N c #77CCEE",
"B c gray60",
"V c #AA8888",
"C c #AA9988",
"Z c #BB9988",
"A c #BB9999",
"S c #BBAA99",
"D c #9999AA",
"F c #99AAAA",
"G c #AAAAAA",
"H c #AAAABB",
"J c #AABBBB",
"K c #BBBBBB",
"L c #CCAA99",
"P c #CCAAAA",
"I c #CCBBAA",
"U c #DDBBAA",
"Y c #DDBBBB",
"T c #DDCCBB",
"R c #BBBBCC",
"E c #BBCCCC",
"W c gray80",
"Q c #CCCCDD",
"! c #CCDDDD",
"~ c #DDDDDD",
"^ c #EEDDDD",
"/ c #DDDDEE",
"( c #DDEEEE",
") c #CCEEFF",
"_ c #EEEEEE",
"` c #EEEEFF",
"' c #EEFFFF",
"] c white",
"[ c None",
/* pixels */
"[[[[[[[[[[[[[[[]]    bxxxb [[[[[[[[[[[[[[[[[[[[[[[[[[[[[[[[[[[[[[[[[[[[[[[[[",
"[[[[[[[[[[[[[[   bbbbbxdxx [[[[[[[[[[[[[[[[[[[[[[[[[[[[[[[[[[[[[[[[[[[[[[[[[",
"[[[[[[[[[[[[ bbbbbxxxxxdrzz [[[[[[[[[[[[[[[[[[[[[[[[[[[[[[[[[[[[[[[[[[[[[[[[",
"[[[[[[[[[[[[ bbxxxxdddzxddzv[[[[[[[[[[[[[[[[[[[[[[[[[[[[[[[[[[[[[[[[[[[[[[[[",
"[[[[[[[[[[[[[ bxddxxxddxxdxv [[[[[[[[[[[[[[[[[[[[[[[[[[[[[[[[[[[[[[[[[[[[[[[",
"[[[[[[[[[[[[[[ xxxddxxdxxdxvv[[[[[[[[[[[[[[[[[[[[[[[[[[[[[[[[[[[[[[[[[[[[[[[",
"[[[[[[[[[[[[[[[ vxxddxddxdxvv [[[[[[[[[[[[[[[[[[[[[[[[[[[[[[[[[[[[[[[[[[[[[[",
"[[[[[[[[[[[[[[[[ vxxdddddxzccc[[[[[[[[[[[[[[[[[[[[[[[[[[[[[[[[[[[[[[[[[[[[[[",
"[[[[[[[[[[[[[[[[[ vxxxxdzrzczz [[[[[[[    [[[[[[[[[[[[[[[[[[[[[[[[[[[[[[[[[[",
"[[[[[[[[[[[[[[[[[[ vvvzrrrlzzz     TYUISSZCCC   [[[[[[[[[[[[[[[[[[[[[[[[[[[[",
"[[[[[[[[[[[[[[[[[[[vcclrrjjjjkh TTYUISACCCCCCCMC  [[[[[[[[[[[[[[[[[[[[[[[[[[",
"[[[[[[[[[[[[[[[[[[[ zzjeeeeefff YUIPSSZCCCCCCi,2inn [[[[[[[[[[[[[[[[[[[[[[[[",
"[[[[[[[[[[[[[[[[[[[[ kjjgwfffhfs     MCCCCCCCCni<,iii[[[[[[[[[[[[[[[[[[[[[[[",
"[[[[[[[[[[[[[[[[[[[[  kjfwwqaaas ss ,4nMMMMCCCCCCMu4yt4[[[[[[[[[[[[[[[[[[[[[",
"[[[[[[[[[[[[[[[[[[[ T hhfqqqaqaas s *,4iiipnnMVCCCCi&344[[[[[[[[[[[[[[[[[[[[",
"[[[[[[[[[[[[[[[[[ UUIL saqqqqqqass  **,,,,,44tipnnMVnt443[[[[[[[[[[[[[[[[[[[",
"[[[[[[[[[[[[[[[ LLSAMp saaqaaaaa   ,******,,,,,,<4ipnnit43 [[[[[[[[[[[[[[[[[",
"[[[[[[[[[[[[[[ ZZVni4,, saa     &&&&&&&&&********,,4tipit44 [[[[[[[[[[[[[[[[",
"[[[[[[[[[[[[[ CCni4,,,*    &&&&-&&-------&-&&&&****,,,4iit44 [[[[[[[[[[[[[[[",
"[[[[[[[[[[[[ CMpt4,,*&&&&&&&-&-,111111-$$$%&&&-*******,,4tt44 [[[[[[[[[[[[[[",
"[[[[[[[[[[[[Cnit4,,*&&&&&O&-1117676$611-=$...+&,,,,*****,34t44 [[[[[[[[[[[[[",
"[[[[[[[[[[[CMit4,,*&&&.  -1-.111111 1115655$=O  $,,,*&***,,4444 [[[[[[[[[[[[",
"[[[[[[[[[[ Mpi4,,&-&  -1111- @:1=X   O:1111 651$  &,,*&***,,4444 [[[[[[[[[[[",
"[[[[[[[[[[Vni4,,--  166 @11-            @=X -1111-  &>&&****,444t [[[[[[[[[[",
"[[[[[[[[[ Mpi,,>& -6761                      @-;.-:o  ,&&****,44yi[[[[[[[[[[",
"[[[[[[[[[Cni4>,- .1  O.                          ;     #&&****,4yip[[[[[[[[[",
"[[[[[[[[ Mny,>,  66@          JRREEERRRRR         ]]^    -&***,,4ii [[[[[[[[",
"[[[[[[[[ Mp4,,$ 166:@      WQ /___E_//~QQ   Q    ]]]^ 6   -&&&*,,4ii[[[[[[[[",
"[[[[[[[[ Mi4,, Oo;1:@   ]]] // ` `E````` ]]]    ]^^^  51   -&&&*,,ti [[[[[[[",
"[[[[[[[[ Mi4,, --     ]]   ] ~/  `E````' ]]]]]]]^     16:@ .,*&&*,4y4[[[[[[[",
"[[[[[[[[ Mi4,$ 11-@  ]] ])) ^ /` `E```` ]]]   ]^ R    O661  X,,&*,,4i[[[[[[[",
"[[[[[[[[[Mp4,& :111= ]] ))N ^ /```/``` ]]] ])) ]^ H      70  ,,*&*,4i [[[[[[",
"[[[[[[[[[ n4,, @@$=@= ]]   ]^ /``````` ]]] ))N ]^ HF   -6706 O2,&*,3i [[[[[[",
"[[[[[[[[[ ni<,  @ O   ]]]]]^^ /    ``` ]]]]   ]]^ JF   =6707  4,*&,3i [[[[[[",
"[[[[[[[[[[Mi4,#  -@= Q ]]]^  // ]] ```/  ]]]]]]^ ~RFD o  o06  4,*&,4y [[[[[[",
"[[[[[[[[[[ n4,,  %=1 / ^^^ _//` 88 ```/Q~ ]]]^^^ QWGD -o      4,*&,4i[[[[[[[",
"[[[[[[[[[[[ni,,,  @ ``E   ///`` 88 ````// ^^^   Q//JD 1:971$ &4,*&,4i[[[[[[[",
"[[[[[[[[[[[[i3,,,   ``/EWW/```` 8B `````'Q   ~~Q//~RGD = O7  24,**,4 [[[[[[[",
"[[[[[[[[[[[[[4,*24 _```///````` 8B ``````/WWW///__/QHD =    ,43,**,t [[[[[[[",
"[[[[[[[[[[[[[[ ,V /___`````````    ```````///_____/QRG     ,43,,*,4i[[[[[[[[",
"[[[[[[[[[[[[[[[ 4 (___````````` EE ```````_________!WHD   ,<,,,,*,t[[[[[[[[[",
"[[[[[[[[[[[[[[[] ~___`````````` ///````````________/QKF  ,,&,,,,,4 [[[[[[[[[",
"[[[[[[[[[[[[[[[[ /___``````````E``/`````_``________/QRF 4,,,,*,,4 [[[[[[[[[[",
"[[[[[[[[[[[[[[[ !/__```````````/``````````_`_______/QRGD ,,,*,, [[[[[[[[[[[[",
"[[[[[[[[[[[[[[[ /(__````````````````````````_______/QWHD 444  [[[[[[[[[[[[[[",
"[[[[[[[[[[[[[[[Q/__``'``````````````````````_______/QWHDD   [[[[[[[[[[[[[[[[",
"[[[[[[[[[[[[[[ /___``'``````````````````````_______/QRHDD ][[[[[[[[[[[[[[[[[",
"[[[[[[[[[[[[[[ /___```'`````````````````````_______/~EHDDD[[[[[[[[[[[[[[[[[[",
"[[[[[[[[[[[[[[ (___``]'````````````````````________/~WHFDD [[[[[[[[[[[[[[[[[",
"[[[[[[[[[[[[[[ (___``]]````````````````````_______(/~EHGDD [[[[[[[[[[[[[[[[[",
"[[[[[[[[[[[[[[/(___``]]'```````````````````_______//QRHGFFD[[[[[[[[[[[[[[[[[",
"[[[[[[[[[[[[[[((___``]]```````````````````_______//~QRHGFGG [[[[[[[[[[[[[[[[",
"[[[[[[[[[[[[[[((___```]]`````````````````________//~WRHGGGH [[[[[[[[[[[[[[[[",
"[[[[[[[[[[[[[[/((____```````````````````________(/~QRKHGFHH [[[[[[[[[[[[[[[[",
"[[[[[[[[[[[[[[/((____```]````````````````______(/~QQRHHFFHH [[[[[[[[[[[[[[[[",
"[[[[[[[[[[[[[[//(_____``````````````````______(//QQWRHGFFHH [[[[[[[[[[[[[[[[",
"[[[[[[[[[[[[[[~/(_____````'``]]````````______(//QQWRKHGDFHH [[[[[[[[[[[[[[[[",
"[[[[[[[[[[[[[[~//______`````'`````````______(//!QWERHHDDGHH[[[[[[[[[[[[[[[[[",
"[[[[[[[[[[[[[[Q~/(______````````````_______(/~QQWRRHHDDDHHJ[[[[[[[[[[[[[[[[[",
"[[[[[[[[[[[[[[ Q~/(__________``___________//~QWWRRJHFDDDHJ [[[[[[[[[[[[[[[[[",
"[[[[[[[[[[[[[[ Q!/(__(__________________(/~QQWERRJHDDDDGHK [[[[[[[[[[[[[[[[[",
"[[[[[[[[[[[[[[[EQ!/(((///(___________(//~QQWRRRRJHDDBDDHJK[[[[[[[[[[[[[[[[[[",
"[[[[[[[[[[[[[[[ RWQ///////////////////~QQWRRRRRHHDDBBDGJR [[[[[[[[[[[[[[[[[[",
"[[[[[[[[[[[[[[[[ RWQ~~~~QQQ!!!~~~!!~QQQERRRRRJHGDDBBDGHRR[[[[[[[[[[[[[[[[[[[",
"[[[[[[[[[[[[[[[[[RRWQ~!QQWWWQQQQQQQWWERRRRRKHHGDBBDDGHRR[[[[[[[[[[[[[[[[[[[[",
"[[[[[[[[[[[[[[[[[[KREQQQWERRRREEWERRRRRRKKHHHDDBBBDGHRR [[[[[[[[[[[[[[[[[[[[",
"[[[[[[[[[[[[[[[[[[ KRRWWERRRRRRRRRRKKJHHHHHGDDBBDDHJRR [[[[[[[[[[[[[[[[[[[[[",
"[[[[[[[[[[[[[[[[[[[[KKRRRRRRKKJJJHHHHHHHGGFDDDDDFHKRR[[[[[[[[[[[[[[[[[[[[[[[",
"[[[[[[[[[[[[[[[[[[[[[KKKRRRKKJHHHHHHHHGFDDDDDDGHKRK [[[[[[[[[[[[[[[[[[[[[[[[",
"[[[[[[[[[[[[[[[[[[[[[[ JJJJKJHHHHHHHHGFDDDFGHHJRR  [[[[[[[[[[[[[[[[[[[[[[[[[",
"[[[[[[[[[[[[[[[[[[[[[[[[[ HJHJHHHHHHHGGGGGHHKRR  [[[[[[[[[[[[[[[[[[[[[[[[[[[",
"[[[[[[[[[[[[[[[[[[[[[[[[[[[[  JJJHHHHHHJKKRR  [[[[[[[[[[[[[[[[[[[[[[[[[[[[[[",
"[[[[[[[[[[[[[[[[[[[[[[[[[[[[[[[[[[       [[[[[[[[[[[[[[[[[[[[[[[[[[[[[[[[[[[",
"[[[[[[[[[[[[[[[[[[[[[[[[[[[[[[[[[[[[[[[[[[[[[[[[[[[[[[[[[[[[[[[[[[[[[[[[[[[["
};
