/* XPM */
static char *_527443634964[] = {
/* columns rows colors chars-per-pixel */
"64 64 87 1 ",
"  c #4D2C25",
". c #542722",
"X c #582627",
"o c #552C26",
"O c #592B26",
"+ c #552E29",
"@ c #5B2E2A",
"# c #4E3127",
"$ c #4E3229",
"% c #4F392E",
"& c #513027",
"* c #55342C",
"= c #5B332D",
"- c #56392E",
"; c #5B382F",
": c #563631",
"> c #5C3531",
", c #563A32",
"< c #5C3B33",
"1 c #5C3E39",
"2 c #602827",
"3 c #642E2E",
"4 c #62322E",
"5 c #6A302F",
"6 c #633532",
"7 c #6B3534",
"8 c #643B35",
"9 c #6A3B36",
"0 c #653D39",
"q c #6B3D3A",
"w c #723D3B",
"e c #564135",
"r c #5C4236",
"t c #5D423A",
"y c #624037",
"u c #64433B",
"i c #6B433D",
"p c #64493E",
"a c #6A483F",
"s c #72423E",
"d c #78403F",
"f c #733F41",
"g c #654641",
"h c #6C4541",
"j c #664A42",
"k c #6C4B43",
"l c #6D4D49",
"z c #744542",
"x c #7A4643",
"c c #734B45",
"v c #7A4A46",
"b c #794748",
"n c #744E49",
"m c #7B4D49",
"M c #665045",
"N c #6D5046",
"B c #6E524A",
"V c #725047",
"C c #74534B",
"Z c #7B534D",
"A c #74594E",
"S c #7A594F",
"D c #755651",
"F c #7C5651",
"G c #765952",
"H c #7C5A53",
"J c #7D5C59",
"K c #7C6056",
"L c #7D6359",
"P c #814A47",
"I c #814D4A",
"U c #81524E",
"Y c #825551",
"T c #825B55",
"R c #8A5B56",
"E c #835E59",
"W c #895E59",
"Q c #826057",
"! c #84625A",
"~ c #8A645D",
"^ c #876160",
"/ c #8B6661",
"( c #846B62",
") c #8C6A63",
"_ c #936662",
"` c #926A64",
"' c #916B6A",
/* pixels */
"<Scaai44ay6aiyi8re4ayauBee89**ry;SVacy=4aiysiyi86,r10fgl<106$*<0",
"!_ZaZT!_WTU~UsdssaaavTSSAVmcSZUTQ`ZsZT~~QTURUdPssVBlnYJJDcbbJCYT",
"vUw9ssIIIRIddsPsdxTr88y8sis8QZUPvIs9sdIIdUIIPsx9bbF06f08z0fwTcmI",
"sdq966sI5ss9iss92ya#oO4iO@4=ay55ds9984sm5isssyd9@8g>X568=@33m863",
"ZTQ!TZ!~aQQZRQ~QTSAAaapakSTZ!KdQZRQ!TS!~aTTSQSRQFFGNkzaNaSUU!HZY",
"sSZSQZZcTSaS~aaTaapaaSaKpNssaaadaZZZTZZVZZSZ~aSSc1tjZFCJpasaplaV",
"qv8@688isyyyU4yyy=yys2-pry95y8yiis848yyisyyyZ=y88+*>66=ypis6y698",
"qRUdvvvUUIda`ZsssissPPZSVaPdIidisRIsPdPUUZdZ`sssfzZZxzzRdiddZiss",
"PdPPdPRQdTUUysZisdVuUsIssPvITUPPddIIPPUTIaTdUZaiqmHusvmZSIPxTQIP",
"iiyiiyid6yyioOy=7ia-asyyy88iNVd7siyiyyisy6syy68=8ia,qsu8yyiaaUsy",
"iaaaapyayypayyayiiBeaVyaaVaVAKcsiaiyayiSyyayu;yyauMtckataaadAQaa",
"aUSaSaaZaaaaSaaayaNpaZaKaSZaaaccaTUaSaaaNaaaSaayyjAkVzlGpSTaaaas",
"6ssiii455O4ysy9oo==8948Beisd98qc4ssiii45i4Oys944@>g>630n6idwyyyd",
"yssiis9yii9sdsi46i0sx5uV-8wwq869sasy9iyissisd9s9q0g>fqhc489iay45",
"SdTSaZZTUTdQUZPdmFJVWSZAVAvUKAVUSUSZsaUTZUZUTaRZJDJlTJGAACaTSSaT",
"p;yyy-yaya;y*6ya=*M$kk<-;;;uprimyyyiieyaip;;y=i;ftj1ga<,,-rypraS",
"youy&<pk:::0*98>o>p&<<;-y-;&pp;y<*1<:<rlry*6=i=O$,g*<-:-,-r$up-r",
"TZZcCFCCchnnCzzhcVZkZVcSZVSmQQTSJCFhnHZmsaaaZVasDnCnZDVHCVHVKKGH",
"aVZ8bf7fw7vfY80iiiq9ii6UvsmsvscchnH9izwws7dsUyyyq9qzq66Zcibznccc",
"-aV=s67733q3b>>>=6O=44.s9=i864i9>jD>937333s4a=--366q33@vi4086608",
"kkGgClFaukngFnlkaAVVVSaSapVVkuCNjkCjSVHkiaaaKCCVlkknnChChhnnc0mn",
"<>jatuKjtjjukCchyaaayaruuukVk<a<<<trppGNypaaaaaa0hhghk0h0ilnz<h0",
"@+60*:Cj$*<*@>7686su68988888io=@@@>>o&Va*&ryO=44=0h986>09999w@6@",
"Ymzncn!Fkhmnbwmms9ZssicsdcssZscmFnzniV)UayZUsiIZzhnhb0qbbbwfYxbb",
"CEyFkvbzzmqbbaHzVmcqq60f9b>06mbnnHgFibmxdIiZmaSuhDl101gfihqfzzbb",
"uD*1>>64698nk8g:*==*<*8h<0+>*<><<D<,+qq6594csype1g1$+ <1>>*>9>60",
"BLkjj<0<hghJGpjutta1ktaltu<ujjjkA(BugkniauaSKaprett%t1MB,<t1Bgll",
"jKCCHC(GHjkFHllDCACkNjkNGHGG!CCCBBlNJC/HSaaSSVVNBGDjlMljGGJD(CGD",
">96800Eag*:0q67q8ii+>>>>0000m<0896>908Jau==8867qulh::>: 1ff0n>f:",
"bbzhhu!kga0mbzxh0zc>>600>80iF0hcbbbzih~hii8issxsfgc*>fff>1ffFfff",
"H)KL^H'~T~Y//E~CFJHVCkCHJ!L!/J!!C^LHET'ER!Z!!H/DJDElnlnJJ^E^/JJE",
"tLjlC>*8cFuhhuC,<,ttg>uG,u<akgjkjKknC8=8vUick8C,::f1g01C118gllhl",
"rKaaay;raiyaiiay,-,p8appr-8y&*ya<HVacu;4sy8aiyiy;8<j>n0l1:0<:$0g",
"Q)didUT~RTIRUaddzzSVmZQSVVmdTVTUE~ZsZYW~WTIRTddsscDlxFFJFnZnJDHY",
"dUssaIURPUPPdassxvTy69i9sidiQcPPvvw9sdmUITIPdsdifbEfxfz8nzffYCbv",
"ia9y46sU6ss9isdyO4u#o=9y==4=ay55sci964dm9ds9isd9X>h*wqi8+@33ci46",
"U`~~QQ~`aQQdQQ~TUSAVaaaNVSZZQSaTZQQQQZ!~aRRa~W~U^FGklzakaSUZ~SZY",
"yaaSUSaaSSSA)aSackpVsUCQpascaasSaSCSSSSVSZZS`aVTlutNlZVKaaasVpam",
"yPa5yiiiiyyyT;6iiy;695&pyy97iy9yyc8@88ysiyyiU48y=o*y88=iiyi5y899",
"sWUsdddUPUSd`daavsVsIdaTViPdPids9RZsvsvUIIPs`ddazhCVvdcTPsPPdssw",
"ddPIPPURsQUsUZissvZyZsYscvvITZPPPvmmdZURIITvsUsszcHumvZndUPIRTII",
"iyyiyysx48y8y6=O9ipeyiyi898uaCs99yyiiysa8yy8y66*;8p-iq0yyyysdSdy",
"iaiiaiyairiyuryyiyNpaayaaNkkKKaaiaiiaauVyyyuyy;rapMtazugaaadSQas",
"aUaZZaaSViaaTiaiiyaaaaaKpCZsaaaZaTZaCVsVaaaCSaaaVVBNcnkDaATaaaaa",
"yad9s744iO47d49oo4;8s5ya,azw78qz4vs9s84664=is884>><>371n4sdiyyyd",
"sddyisyids7sv7s46iuidsaa-ywwq88q9vsi9s989i4ssisiq8f6qqfn;89iyy5y",
"dQUSIaIRUQcZQdYUVVKBQZAAVCZHHAZUIZTUIcZUUQVTTaTCDDJlYFCHVCZUKAaU",
"yeyayyyaya;8;=6i8&peaayr,,<ptriVi48yy;yaya;yeoiy::j,lyt,,,eyprpS",
"y=yu::,k,1:<>0>@=;u--<8*<<t$par80@hh*>1key-y=u== :g:<,,*r,<#up,r",
"UVHVnDCDhkccFckzZaZmZVZSZVHn!~SSFmYcFFZnsaaaUcaslnJlClVHSVHVK!SS",
"gnY8ffw7wqbqY880ss9si99ZcimzasashFZ6zzwws9dsTy8y000q990Fcsmzbcmz",
"<kF>q8q336q3b*=*64O844os9=i8y6sy:hn@066433i4s=-=6669696b060q8400",
"lllfBBJgajcjHCCcaSaaVVaSauVVVuaAkjBgANHpiaaaSCVVnZbCnFhZhinmcunn",
">:t1gtBkrujgjnVaiaaaaauaiuaaariy<:jprrKMryaaaVVaihhhhk0uhiknn80i",
">>ff::ll*$>>o@7@4yy88==48888i&=*+*<< #Aa-#e;OO6466h689>86960h@==",
"YblFll^DnuZYzwUmsadssicvcviiIisZZFchuV!SaySUssImizmzzqfbccqzY0bI",
"CEhF8hzzzzqbn0nccbmi06ii8z98icbhnHpCjnczdUimmsVscmYzh00fqf006bmz",
":l11+qhq>36cc><*::>===8i=8==88i>,G:-+8>@684aar8-:=1:>:0g><$  >81",
"lLBgllCkhuuJHupr11g1utjNyaatn0guB(Btjjk0kuaSSurpu1t1g1Ml:111jjgj",
"DJllJC!HClhHHkZCDDDfNjlkCCHA~lDlBGBBLC!LScVHQVaCDBDMljlgBGGG(JBB",
"63>f01Fgt>@006w91fg:@>1@00hfF>f063690<Fk8-;;677q0fg=>=>$tff1Cf:f",
"bbblfh^kii0bvwxwffl:1>f>00fgmqffbIbfzhWk8iq9sxxwqlb>>>ff>1ffnhfh",
"J^JJEE'EE!T/^!~nDDJDDlJJJJJE'^^!F_EJWT'WY!STT!!FFFJnllDJJJE//^JJ",
"gJglC8=8nnakjuN<1:111:gl1t1gllllgJhhF8@6vS9kkuk:1111f1glf11ltgll"
};
